<svg xmlns="http://www.w3.org/2000/svg" width="980" height="560" viewBox="0 0 980 560">
<style>
text{font-family:Arial,Helvetica,sans-serif;fill:#1f2933}
.title{font-size:20px;font-weight:700}
.axis{stroke:#475569;stroke-width:1}
.grid{stroke:#e2e8f0;stroke-width:1}
.small{font-size:12px}
.label{font-size:13px;font-weight:600}
</style>
<rect width="980" height="560" fill="#ffffff"/>
<text class="title" x="24" y="32">Base Fee Trend Over Recent Blocks</text>
<line class="axis" x1="78" y1="482" x2="944" y2="482"/>
<line class="axis" x1="78" y1="482" x2="78" y2="76"/>
<line class="grid" x1="78" y1="482.00" x2="944" y2="482.00"/>
<text class="small" x="18" y="486.00">0.031</text>
<line class="grid" x1="78" y1="380.50" x2="944" y2="380.50"/>
<text class="small" x="18" y="384.50">0.614</text>
<line class="grid" x1="78" y1="279.00" x2="944" y2="279.00"/>
<text class="small" x="18" y="283.00">1.197</text>
<line class="grid" x1="78" y1="177.50" x2="944" y2="177.50"/>
<text class="small" x="18" y="181.50">1.78</text>
<line class="grid" x1="78" y1="76.00" x2="944" y2="76.00"/>
<text class="small" x="18" y="80.00">2.363</text>
<polyline fill="none" stroke="#7b2cbf" stroke-width="2" points="78.00,478.87 79.39,478.34 80.77,478.87 82.16,476.08 83.55,476.08 84.93,473.99 86.32,478.87 87.71,477.82 89.09,479.39 90.48,480.26 91.87,480.43 93.25,479.39 94.64,480.43 96.03,480.78 97.41,479.39 98.80,481.30 100.19,480.26 101.57,480.96 102.96,481.13 104.35,480.96 105.73,480.96 107.12,480.96 108.51,480.08 109.89,479.91 111.28,480.08 112.67,479.91 114.05,479.39 115.44,480.26 116.83,479.74 118.21,479.74 119.60,479.21 120.99,480.61 122.37,479.74 123.76,479.21 125.15,479.91 126.53,480.26 127.92,480.26 129.31,480.08 130.69,480.43 132.08,479.56 133.47,480.61 134.86,480.08 136.24,480.08 137.63,480.26 139.02,480.26 140.40,480.26 141.79,480.08 143.18,479.91 144.56,479.91 145.95,479.91 147.34,480.08 148.72,479.21 150.11,478.69 151.50,479.21 152.88,479.04 154.27,480.08 155.66,480.96 157.04,482.00 158.43,479.39 159.82,479.74 161.20,480.08 162.59,480.43 163.98,479.21 165.36,478.69 166.75,479.21 168.14,481.13 169.52,480.43 170.91,480.08 172.30,481.65 173.68,480.96 175.07,480.78 176.46,479.91 177.84,479.91 179.23,481.83 180.62,479.39 182.00,478.87 183.39,479.04 184.78,476.78 186.16,477.47 187.55,475.04 188.94,475.73 190.32,477.30 191.71,477.47 193.10,477.82 194.48,477.82 195.87,478.52 197.26,479.91 198.64,479.74 200.03,479.04 201.42,478.87 202.80,478.69 204.19,479.04 205.58,479.21 206.96,479.56 208.35,479.74 209.74,479.04 211.12,479.56 212.51,480.08 213.90,480.08 215.28,479.56 216.67,478.00 218.06,475.73 219.44,471.21 220.83,471.38 222.22,471.03 223.60,471.21 224.99,471.90 226.38,472.08 227.76,469.81 229.15,468.77 230.54,468.77 231.92,468.77 233.31,469.29 234.70,468.77 236.08,470.68 237.47,469.64 238.86,471.73 240.24,470.34 241.63,470.51 243.02,471.21 244.41,472.08 245.79,469.46 247.18,469.46 248.57,469.81 249.95,465.29 251.34,466.33 252.73,461.80 254.11,462.67 255.50,461.98 256.89,461.46 258.27,461.98 259.66,455.54 261.05,451.88 262.43,457.97 263.82,460.06 265.21,460.41 266.59,461.63 267.98,463.20 269.37,462.50 270.75,466.16 272.14,469.12 273.53,469.99 274.91,472.42 276.30,474.51 277.69,474.34 279.07,474.86 280.46,475.73 281.85,472.25 283.23,470.86 284.62,467.72 286.01,469.81 287.39,471.73 288.78,472.77 290.17,474.34 291.55,475.56 292.94,476.08 294.33,477.13 295.71,478.17 297.10,478.00 298.49,479.04 299.87,478.87 301.26,479.74 302.65,480.08 304.03,479.74 305.42,480.61 306.81,479.56 308.19,478.34 309.58,478.34 310.97,479.74 312.35,479.21 313.74,476.95 315.13,473.64 316.51,469.64 317.90,463.20 319.29,464.42 320.67,464.59 322.06,467.03 323.45,468.94 324.83,469.46 326.22,471.38 327.61,473.99 328.99,473.64 330.38,472.95 331.77,472.77 333.15,473.47 334.54,473.30 335.93,471.90 337.31,473.47 338.70,473.30 340.09,473.30 341.47,472.42 342.86,471.55 344.25,469.99 345.63,467.38 347.02,463.72 348.41,465.63 349.80,463.89 351.18,459.02 352.57,461.63 353.96,461.98 355.34,465.11 356.73,466.51 358.12,467.55 359.50,469.12 360.89,469.64 362.28,472.08 363.66,471.73 365.05,471.38 366.44,472.25 367.82,470.68 369.21,467.72 370.60,469.81 371.98,469.64 373.37,470.16 374.76,468.25 376.14,466.68 377.53,468.07 378.92,470.16 380.30,471.03 381.69,469.81 383.08,465.98 384.46,452.05 385.85,445.96 387.24,448.40 388.62,451.18 390.01,453.10 391.40,455.89 392.78,459.89 394.17,462.67 395.56,464.94 396.94,457.63 398.33,455.54 399.72,457.63 401.10,457.28 402.49,459.54 403.88,460.06 405.26,460.59 406.65,461.63 408.04,464.59 409.42,461.11 410.81,453.27 412.20,454.67 413.58,460.06 414.97,461.28 416.36,454.14 417.74,447.53 419.13,449.79 420.52,453.27 421.90,439.52 423.29,447.35 424.68,451.36 426.06,456.93 427.45,460.41 428.84,463.02 430.22,465.63 431.61,465.29 433.00,468.07 434.38,469.64 435.77,469.12 437.16,468.42 438.54,470.51 439.93,470.86 441.32,470.16 442.70,468.94 444.09,471.55 445.48,472.42 446.86,473.47 448.25,469.81 449.64,465.11 451.02,461.63 452.41,460.24 453.80,460.93 455.18,462.50 456.57,463.02 457.96,462.33 459.35,459.54 460.73,459.37 462.12,460.41 463.51,454.14 464.89,455.01 466.28,451.71 467.67,457.10 469.05,456.76 470.44,455.36 471.83,456.93 473.21,461.28 474.60,464.76 475.99,467.72 477.37,468.94 478.76,467.90 480.15,468.77 481.53,468.59 482.92,469.29 484.31,464.94 485.69,467.20 487.08,464.94 488.47,465.29 489.85,469.46 491.24,468.94 492.63,471.55 494.01,469.64 495.40,469.64 496.79,470.34 498.17,472.60 499.56,474.17 500.95,471.55 502.33,471.55 503.72,472.95 505.11,459.19 506.49,436.73 507.88,449.27 509.27,452.05 510.65,451.18 512.04,450.49 513.43,456.23 514.81,453.80 516.20,451.36 517.59,455.01 518.97,457.28 520.36,459.72 521.75,461.28 523.13,462.67 524.52,463.02 525.91,465.81 527.29,470.16 528.68,470.16 530.07,470.16 531.45,472.42 532.84,471.73 534.23,473.99 535.61,475.73 537.00,477.30 538.39,478.52 539.77,478.00 541.16,478.17 542.55,477.30 543.93,477.65 545.32,478.00 546.71,479.21 548.09,477.47 549.48,476.95 550.87,476.78 552.25,478.17 553.64,478.87 555.03,479.39 556.41,480.43 557.80,480.43 559.19,480.96 560.57,479.74 561.96,479.91 563.35,479.39 564.73,479.21 566.12,479.04 567.51,478.69 568.90,478.17 570.28,477.30 571.67,477.13 573.06,476.60 574.44,476.60 575.83,477.30 577.22,475.91 578.60,478.17 579.99,476.60 581.38,472.77 582.76,469.12 584.15,469.64 585.54,470.16 586.92,471.21 588.31,472.42 589.70,473.47 591.08,471.03 592.47,471.03 593.86,468.94 595.24,470.34 596.63,466.33 598.02,465.98 599.40,466.85 600.79,467.72 602.18,469.29 603.56,468.07 604.95,469.99 606.34,470.86 607.72,470.68 609.11,472.08 610.50,471.55 611.88,471.90 613.27,471.21 614.66,468.07 616.04,463.89 617.43,463.20 618.82,462.33 620.20,461.11 621.59,454.32 622.98,447.88 624.36,456.23 625.75,461.46 627.14,466.51 628.52,467.90 629.91,470.34 631.30,472.42 632.68,473.99 634.07,475.04 635.46,476.95 636.84,477.65 638.23,478.52 639.62,479.56 641.00,479.04 642.39,479.04 643.78,478.87 645.16,479.56 646.55,479.91 647.94,479.56 649.32,479.39 650.71,473.82 652.10,459.54 653.48,431.51 654.87,344.29 656.26,166.36 657.64,79.31 659.03,107.69 660.42,165.84 661.80,155.56 663.19,159.74 664.58,235.65 665.96,291.36 667.35,354.91 668.74,368.84 670.12,399.30 671.51,407.83 672.90,421.24 674.29,432.73 675.67,439.87 677.06,448.05 678.45,455.71 679.83,452.58 681.22,453.45 682.61,454.67 683.99,454.49 685.38,459.02 686.77,464.59 688.15,465.46 689.54,468.07 690.93,470.16 692.31,472.25 693.70,470.34 695.09,473.30 696.47,469.29 697.86,469.99 699.25,472.08 700.63,470.68 702.02,472.77 703.41,473.12 704.79,474.34 706.18,476.60 707.57,475.21 708.95,475.73 710.34,476.78 711.73,476.78 713.11,477.30 714.50,476.25 715.89,475.04 717.27,477.30 718.66,477.47 720.05,477.13 721.43,479.39 722.82,479.21 724.21,479.39 725.59,479.21 726.98,479.74 728.37,478.87 729.75,479.74 731.14,480.26 732.53,480.61 733.91,479.74 735.30,480.43 736.69,480.26 738.07,480.43 739.46,480.78 740.85,480.61 742.23,480.08 743.62,480.43 745.01,479.56 746.39,474.51 747.78,472.60 749.17,474.69 750.55,468.07 751.94,472.77 753.33,473.30 754.71,471.90 756.10,474.17 757.49,475.91 758.87,477.30 760.26,474.86 761.65,475.04 763.03,474.86 764.42,475.21 765.81,474.34 767.19,476.78 768.58,477.30 769.97,479.56 771.35,480.08 772.74,480.43 774.13,480.43 775.51,480.61 776.90,480.61 778.29,480.08 779.67,480.61 781.06,479.04 782.45,478.17 783.84,480.08 785.22,480.08 786.61,480.43 788.00,479.74 789.38,478.00 790.77,479.74 792.16,480.26 793.54,479.74 794.93,480.08 796.32,479.91 797.70,480.26 799.09,479.04 800.48,479.74 801.86,479.74 803.25,479.04 804.64,479.21 806.02,479.56 807.41,479.39 808.80,479.56 810.18,479.04 811.57,478.34 812.96,477.65 814.34,479.21 815.73,478.34 817.12,479.56 818.50,480.08 819.89,478.87 821.28,478.69 822.66,479.21 824.05,480.26 825.44,480.43 826.82,480.26 828.21,479.21 829.60,479.21 830.98,479.56 832.37,479.56 833.76,479.56 835.14,480.26 836.53,480.26 837.92,481.48 839.30,480.43 840.69,480.26 842.08,480.61 843.46,479.91 844.85,480.78 846.24,480.61 847.62,480.26 849.01,479.91 850.40,479.74 851.78,478.69 853.17,478.69 854.56,475.73 855.94,474.86 857.33,474.51 858.72,474.51 860.10,475.04 861.49,477.13 862.88,478.52 864.26,476.95 865.65,478.00 867.04,478.17 868.42,478.69 869.81,479.39 871.20,479.04 872.58,472.95 873.97,472.95 875.36,473.47 876.74,473.30 878.13,473.64 879.52,473.12 880.90,471.38 882.29,473.47 883.68,471.55 885.06,473.99 886.45,473.30 887.84,471.90 889.22,472.77 890.61,472.77 892.00,473.64 893.39,474.34 894.77,471.73 896.16,472.77 897.55,474.17 898.93,471.90 900.32,473.12 901.71,471.90 903.09,471.73 904.48,469.64 905.87,470.68 907.25,472.77 908.64,473.47 910.03,472.95 911.41,472.08 912.80,470.86 914.19,472.95 915.57,472.25 916.96,472.95 918.35,472.25 919.73,471.38 921.12,472.25 922.51,471.90 923.89,473.12 925.28,472.95 926.67,473.82 928.05,474.17 929.44,475.04 930.83,476.60 932.21,477.82 933.60,479.74 934.99,479.74 936.37,480.26 937.76,480.43 939.15,479.91 940.53,479.74 941.92,480.61 943.31,480.61"/>
<rect x="90" y="44" width="14" height="14" fill="#7b2cbf"/>
<text class="small" x="110" y="56">base_fee_gwei</text>
<text class="label" x="423.00" y="532">Chronological block order</text>
<text class="label" x="20" y="58">Base fee (Gwei)</text>
</svg>