<svg xmlns="http://www.w3.org/2000/svg" width="980" height="560" viewBox="0 0 980 560">
<style>
text{font-family:Arial,Helvetica,sans-serif;fill:#1f2933}
.title{font-size:20px;font-weight:700}
.axis{stroke:#475569;stroke-width:1}
.grid{stroke:#e2e8f0;stroke-width:1}
.small{font-size:12px}
.label{font-size:13px;font-weight:600}
</style>
<rect width="980" height="560" fill="#ffffff"/>
<text class="title" x="24" y="32">Congestion Ratio Over Recent Blocks</text>
<line class="axis" x1="78" y1="482" x2="944" y2="482"/>
<line class="axis" x1="78" y1="482" x2="78" y2="76"/>
<line class="grid" x1="78" y1="482.00" x2="944" y2="482.00"/>
<text class="small" x="18" y="486.00">0</text>
<line class="grid" x1="78" y1="380.50" x2="944" y2="380.50"/>
<text class="small" x="18" y="384.50">0.25</text>
<line class="grid" x1="78" y1="279.00" x2="944" y2="279.00"/>
<text class="small" x="18" y="283.00">0.5</text>
<line class="grid" x1="78" y1="177.50" x2="944" y2="177.50"/>
<text class="small" x="18" y="181.50">0.75</text>
<line class="grid" x1="78" y1="76.00" x2="944" y2="76.00"/>
<text class="small" x="18" y="80.00">1</text>
<polyline fill="none" stroke="#2f80ed" stroke-width="2" points="78.00,222.30 79.39,294.04 80.77,181.62 82.16,309.94 83.55,140.51 84.93,451.62 86.32,116.76 87.71,306.46 89.09,391.33 90.48,319.82 91.87,287.02 93.25,473.41 94.64,76.49 96.03,341.12 97.41,244.23 98.80,449.66 100.19,457.36 101.57,415.77 102.96,76.05 104.35,260.76 105.73,148.60 107.12,76.08 108.51,78.62 109.89,278.25 111.28,189.56 112.67,284.82 114.05,319.35 115.44,357.85 116.83,250.57 118.21,209.97 119.60,417.80 120.99,390.64 122.37,190.00 123.76,308.34 125.15,286.41 126.53,315.75 127.92,367.72 129.31,216.45 130.69,91.72 132.08,333.96 133.47,311.82 134.86,424.59 136.24,342.90 137.63,277.33 139.02,220.51 140.40,217.67 141.79,275.65 143.18,254.39 144.56,312.35 145.95,258.11 147.34,122.77 148.72,430.24 150.11,251.23 151.50,434.76 152.88,188.06 154.27,222.86 155.66,458.52 157.04,93.38 158.43,447.39 159.82,253.50 161.20,305.78 162.59,121.35 163.98,398.72 165.36,431.89 166.75,432.43 168.14,266.60 169.52,358.43 170.91,199.36 172.30,344.46 173.68,131.89 175.07,118.00 176.46,216.82 177.84,150.05 179.23,76.54 180.62,388.93 182.00,339.28 183.39,313.82 184.78,275.56 186.16,270.19 187.55,235.46 188.94,282.18 190.32,121.10 191.71,268.83 193.10,279.47 194.48,305.59 195.87,279.15 197.26,218.07 198.64,266.71 200.03,307.99 201.42,269.41 202.80,301.07 204.19,344.07 205.58,272.05 206.96,157.29 208.35,271.66 209.74,219.50 211.12,343.83 212.51,230.91 213.90,323.25 215.28,205.68 216.67,249.50 218.06,76.48 219.44,322.93 220.83,238.29 222.22,197.35 223.60,311.07 224.99,183.35 226.38,277.35 227.76,289.04 229.15,334.82 230.54,249.15 231.92,231.78 233.31,280.16 234.70,319.37 236.08,367.40 237.47,306.23 238.86,392.46 240.24,256.92 241.63,278.20 243.02,284.66 244.41,419.46 245.79,243.58 247.18,227.12 248.57,274.57 249.95,311.58 251.34,76.05 252.73,278.38 254.11,213.36 255.50,147.38 256.89,298.41 258.27,322.00 259.66,238.73 261.05,273.31 262.43,258.41 263.82,318.84 265.21,410.93 266.59,289.86 267.98,314.49 269.37,277.76 270.75,327.75 272.14,328.54 273.53,321.89 274.91,290.03 276.30,204.96 277.69,330.05 279.07,188.12 280.46,267.42 281.85,164.84 283.23,339.37 284.62,304.43 286.01,344.41 287.39,154.86 288.78,217.88 290.17,244.54 291.55,271.59 292.94,258.90 294.33,210.93 295.71,246.75 297.10,328.32 298.49,305.99 299.87,275.93 301.26,389.59 302.65,360.94 304.03,346.20 305.42,113.31 306.81,233.73 308.19,154.65 309.58,224.32 310.97,76.07 312.35,119.52 313.74,263.29 315.13,122.52 316.51,355.55 317.90,251.53 319.29,346.79 320.67,374.22 322.06,389.54 323.45,297.21 324.83,287.87 326.22,386.45 327.61,474.48 328.99,366.33 330.38,333.26 331.77,359.22 333.15,299.32 334.54,125.43 335.93,342.15 337.31,176.68 338.70,250.16 340.09,284.66 341.47,83.76 342.86,317.90 344.25,393.96 345.63,220.75 347.02,304.69 348.41,164.58 349.80,371.25 351.18,274.79 352.57,250.58 353.96,387.48 355.34,158.07 356.73,364.23 358.12,346.62 359.50,267.27 360.89,316.38 362.28,125.11 363.66,322.87 365.05,350.78 366.44,275.62 367.82,297.30 369.21,373.95 370.60,352.10 371.98,239.85 373.37,234.02 374.76,215.11 376.14,248.96 377.53,297.25 378.92,330.75 380.30,193.82 381.69,76.24 383.08,76.10 384.46,278.15 385.85,328.07 387.24,411.48 388.62,300.31 390.01,261.76 391.40,273.48 392.78,354.49 394.17,306.67 395.56,333.92 396.94,247.36 398.33,422.19 399.72,266.40 401.10,367.25 402.49,336.72 403.88,258.66 405.26,275.63 406.65,309.90 408.04,292.78 409.42,330.07 410.81,381.20 412.20,309.94 413.58,295.61 414.97,300.35 416.36,256.10 417.74,154.95 419.13,256.04 420.52,245.32 421.90,239.03 423.29,263.84 424.68,301.16 426.06,306.19 427.45,215.65 428.84,282.94 430.22,172.75 431.61,335.60 433.00,287.98 434.38,313.74 435.77,424.41 437.16,375.51 438.54,175.03 439.93,135.30 441.32,272.91 442.70,329.43 444.09,192.70 445.48,276.05 446.86,176.64 448.25,409.40 449.64,344.50 451.02,263.44 452.41,433.60 453.80,192.07 455.18,195.69 456.57,274.09 457.96,278.03 459.35,330.93 460.73,270.99 462.12,198.31 463.51,305.01 464.89,252.01 466.28,318.25 467.67,316.94 469.05,299.91 470.44,180.07 471.83,332.95 473.21,366.44 474.60,311.07 475.99,151.65 477.37,392.23 478.76,220.60 480.15,309.07 481.53,186.55 482.92,101.30 484.31,361.79 485.69,350.06 487.08,414.81 488.47,285.07 489.85,395.76 491.24,417.64 492.63,211.87 494.01,285.69 495.40,355.00 496.79,323.82 498.17,212.96 499.56,271.55 500.95,112.95 502.33,288.64 503.72,120.65 505.11,76.11 506.49,416.16 507.88,294.11 509.27,359.58 510.65,123.78 512.04,220.90 513.43,199.93 514.81,179.02 516.20,392.87 517.59,376.49 518.97,445.09 520.36,340.65 521.75,339.23 523.13,319.96 524.52,278.83 525.91,364.33 527.29,104.22 528.68,332.81 530.07,287.54 531.45,154.47 532.84,369.24 534.23,228.65 535.61,320.50 537.00,345.08 538.39,216.94 539.77,320.19 541.16,253.18 542.55,206.33 543.93,239.02 545.32,276.98 546.71,335.49 548.09,344.81 549.48,252.56 550.87,301.50 552.25,151.40 553.64,406.46 555.03,316.39 556.41,251.84 557.80,248.78 559.19,76.34 560.57,352.96 561.96,294.73 563.35,416.28 564.73,269.12 566.12,372.48 567.51,193.26 568.90,212.07 570.28,246.41 571.67,274.07 573.06,291.14 574.44,335.32 575.83,274.58 577.22,300.02 578.60,324.31 579.99,159.14 581.38,137.13 582.76,180.21 584.15,305.37 585.54,325.58 586.92,306.57 588.31,139.60 589.70,160.12 591.08,138.31 592.47,83.85 593.86,321.01 595.24,186.77 596.63,119.05 598.02,270.11 599.40,262.49 600.79,367.27 602.18,261.28 603.56,291.82 604.95,309.98 606.34,302.35 607.72,420.83 609.11,233.43 610.50,264.01 611.88,283.58 613.27,114.11 614.66,332.30 616.04,328.70 617.43,265.33 618.82,313.65 620.20,175.41 621.59,202.79 622.98,320.10 624.36,261.15 625.75,297.01 627.14,194.83 628.52,447.42 629.91,395.06 631.30,139.67 632.68,290.16 634.07,315.55 635.46,235.08 636.84,326.99 638.23,231.48 639.62,260.95 641.00,296.20 642.39,283.70 643.78,235.52 645.16,222.06 646.55,169.88 647.94,293.80 649.32,240.81 650.71,105.50 652.10,212.77 653.48,76.01 654.87,76.03 656.26,294.95 657.64,455.98 659.03,263.59 660.42,76.14 661.80,328.54 663.19,276.48 664.58,309.80 665.96,342.85 667.35,344.85 668.74,326.29 670.12,313.21 671.51,374.69 672.90,242.20 674.29,333.45 675.67,289.50 677.06,273.05 678.45,325.46 679.83,253.01 681.22,196.12 682.61,78.92 683.99,171.71 685.38,297.84 686.77,306.32 688.15,427.50 689.54,299.38 690.93,208.26 692.31,132.54 693.70,402.57 695.09,303.11 696.47,168.47 697.86,266.93 699.25,368.10 700.63,348.11 702.02,189.65 703.41,229.91 704.79,273.18 706.18,191.24 707.57,359.79 708.95,312.17 710.34,324.11 711.73,228.39 713.11,272.51 714.50,257.63 715.89,132.80 717.27,194.91 718.66,318.46 720.05,304.25 721.43,142.46 722.82,223.20 724.21,272.52 725.59,325.80 726.98,319.52 728.37,239.94 729.75,307.07 731.14,303.89 732.53,124.50 733.91,247.00 735.30,239.67 736.69,246.56 738.07,240.23 739.46,76.70 740.85,102.45 742.23,267.51 743.62,78.11 745.01,198.19 746.39,129.98 747.78,324.43 749.17,92.87 750.55,418.28 751.94,317.05 753.33,181.30 754.71,324.83 756.10,294.47 757.49,133.55 758.87,386.97 760.26,352.71 761.65,211.39 763.03,347.84 764.42,250.75 765.81,310.33 767.19,200.63 768.58,431.22 769.97,272.39 771.35,281.08 772.74,327.55 774.13,409.12 775.51,219.87 776.90,235.29 778.29,344.52 779.67,451.67 781.06,313.65 782.45,362.30 783.84,237.50 785.22,445.25 786.61,225.05 788.00,82.00 789.38,313.83 790.77,231.06 792.16,325.95 793.54,284.21 794.93,335.05 796.32,341.04 797.70,347.38 799.09,427.21 800.48,268.59 801.86,215.17 803.25,289.56 804.64,317.02 806.02,245.57 807.41,448.83 808.80,141.94 810.18,397.38 811.57,265.17 812.96,428.49 814.34,318.51 815.73,367.60 817.12,222.51 818.50,116.40 819.89,358.06 821.28,342.76 822.66,349.27 824.05,210.17 825.44,126.65 826.82,394.14 828.21,101.97 829.60,384.63 830.98,191.75 832.37,365.55 833.76,246.63 835.14,358.62 836.53,388.49 837.92,173.31 839.30,448.13 840.69,374.50 842.08,238.44 843.46,363.10 844.85,152.19 846.24,392.87 847.62,243.69 849.01,354.40 850.40,239.94 851.78,330.88 853.17,262.17 854.56,225.29 855.94,123.74 857.33,226.94 858.72,355.35 860.10,241.06 861.49,304.47 862.88,108.84 864.26,247.61 865.65,267.82 867.04,337.77 868.42,345.20 869.81,93.36 871.20,339.42 872.58,331.36 873.97,321.65 875.36,194.26 876.74,141.28 878.13,211.42 879.52,298.62 880.90,330.71 882.29,179.12 883.68,263.77 885.06,84.70 886.45,215.52 887.84,414.23 889.22,292.34 890.61,366.27 892.00,270.73 893.39,124.74 894.77,359.91 896.16,339.43 897.55,150.31 898.93,324.84 900.32,348.84 901.71,223.20 903.09,252.23 904.48,202.91 905.87,322.03 907.25,213.77 908.64,328.02 910.03,405.49 911.41,305.96 912.80,231.92 914.19,346.34 915.57,470.03 916.96,337.07 918.35,294.17 919.73,306.51 921.12,320.88 922.51,303.02 923.89,142.42 925.28,419.43 926.67,345.79 928.05,298.18 929.44,280.77 930.83,250.55 932.21,336.51 933.60,294.63 934.99,337.77 936.37,300.14 937.76,106.09 939.15,346.83 940.53,320.19 941.92,143.42 943.31,236.39"/>
<polyline fill="none" stroke="#d62728" stroke-width="2" points="78.00,222.30 79.39,270.47 80.77,272.04 82.16,254.34 83.55,247.75 84.93,250.30 86.32,281.48 87.71,300.98 89.09,304.31 90.48,306.24 91.87,291.29 93.25,264.44 94.64,252.75 96.03,284.20 97.41,248.49 98.80,307.40 100.19,278.74 101.57,283.77 102.96,271.27 104.35,271.33 105.73,275.79 107.12,273.79 108.51,261.39 109.89,263.44 111.28,260.64 112.67,284.15 114.05,275.63 115.44,284.56 116.83,274.47 118.21,267.22 119.60,284.38 120.99,294.04 122.37,281.45 123.76,270.01 125.15,279.62 126.53,282.98 127.92,283.14 129.31,274.22 130.69,266.13 132.08,263.50 133.47,284.07 134.86,280.33 136.24,271.02 137.63,280.42 139.02,274.90 140.40,276.30 141.79,282.30 143.18,273.97 144.56,279.32 145.95,275.40 147.34,272.40 148.72,277.19 150.11,263.16 151.50,284.75 152.88,264.53 154.27,280.51 155.66,305.69 157.04,294.57 158.43,262.53 159.82,270.44 161.20,274.76 162.59,278.38 163.98,274.79 165.36,274.43 166.75,287.39 168.14,299.44 169.52,289.01 170.91,256.87 172.30,298.39 173.68,271.51 175.07,273.86 176.46,270.93 177.84,258.95 179.23,282.05 180.62,271.52 182.00,259.45 183.39,270.95 184.78,252.63 186.16,259.17 187.55,250.80 188.94,269.74 190.32,270.48 191.71,292.29 193.10,287.98 194.48,289.48 195.87,283.41 197.26,295.97 198.64,292.44 200.03,275.66 201.42,263.87 202.80,272.75 204.19,281.96 205.58,281.76 206.96,279.73 208.35,284.66 209.74,277.77 211.12,282.13 212.51,281.89 213.90,289.62 215.28,272.12 216.67,258.22 218.06,231.91 219.44,217.51 220.83,249.12 222.22,270.02 223.60,278.92 224.99,271.82 226.38,283.20 227.76,272.11 229.15,267.73 230.54,254.77 231.92,275.45 233.31,278.85 234.70,274.86 236.08,290.42 237.47,282.77 238.86,291.17 240.24,275.34 241.63,279.30 243.02,277.66 244.41,292.58 245.79,270.12 247.18,265.58 248.57,277.65 249.95,252.04 251.34,254.28 252.73,255.63 254.11,270.46 255.50,272.24 256.89,277.14 258.27,279.75 259.66,261.66 261.05,247.20 262.43,278.79 263.82,292.16 265.21,298.12 266.59,281.88 267.98,287.59 269.37,276.83 270.75,292.35 272.14,295.62 273.53,303.72 274.91,299.54 276.30,295.81 277.69,291.87 279.07,280.07 280.46,283.30 281.85,252.02 283.23,255.90 284.62,238.57 286.01,277.83 287.39,282.71 288.78,287.04 290.17,294.40 291.55,300.68 292.94,291.53 294.33,290.16 295.71,290.30 297.10,294.59 298.49,289.84 299.87,283.18 301.26,284.90 302.65,298.03 304.03,284.91 305.42,276.36 306.81,262.15 308.19,246.20 309.58,264.87 310.97,272.43 312.35,280.93 313.74,263.70 315.13,227.31 316.51,232.83 317.90,209.80 319.29,258.15 320.67,286.23 322.06,293.40 323.45,290.63 324.83,288.88 326.22,297.34 327.61,302.88 328.99,301.47 330.38,280.06 331.77,276.11 333.15,281.55 334.54,267.21 335.93,271.07 337.31,261.36 338.70,286.04 340.09,282.36 341.47,266.35 342.86,259.83 344.25,273.63 345.63,253.54 347.02,240.98 348.41,247.53 349.80,280.35 351.18,248.51 352.57,263.76 353.96,288.13 355.34,284.08 356.73,290.70 358.12,296.67 359.50,293.71 360.89,285.09 362.28,281.48 363.66,293.91 365.05,285.30 366.44,282.16 367.82,258.49 369.21,262.93 370.60,277.05 371.98,285.20 373.37,285.78 374.76,267.62 376.14,258.18 377.53,276.16 378.92,293.06 380.30,289.64 381.69,271.97 383.08,249.09 384.46,221.04 385.85,224.23 387.24,260.73 388.62,284.35 390.01,283.66 391.40,291.17 392.78,294.14 394.17,302.53 395.56,299.57 396.94,259.87 398.33,249.01 399.72,260.60 401.10,284.94 402.49,289.79 403.88,282.45 405.26,283.13 406.65,288.32 408.04,287.90 409.42,279.18 410.81,245.72 412.20,253.82 413.58,294.51 414.97,288.61 416.36,269.25 417.74,228.78 419.13,261.59 420.52,277.11 421.90,258.05 423.29,269.12 424.68,272.68 426.06,300.90 427.45,299.76 428.84,302.88 430.22,293.47 431.61,293.19 433.00,290.91 434.38,302.52 435.77,286.76 437.16,276.50 438.54,274.28 439.93,278.07 441.32,278.88 442.70,255.11 444.09,263.49 445.48,290.25 446.86,291.42 448.25,267.72 449.64,250.81 451.02,232.20 452.41,264.44 453.80,270.97 455.18,280.19 456.57,272.53 457.96,284.56 459.35,265.08 460.73,264.78 462.12,270.46 463.51,265.49 464.89,268.37 466.28,272.00 467.67,282.12 469.05,282.24 470.44,270.48 471.83,276.48 473.21,297.18 474.60,303.58 475.99,298.05 477.37,297.67 478.76,279.70 480.15,279.04 481.53,275.21 482.92,270.64 484.31,261.52 485.69,277.04 487.08,288.57 488.47,274.91 489.85,288.55 491.24,300.45 492.63,289.67 494.01,281.12 495.40,285.46 496.79,287.05 498.17,285.17 499.56,294.25 500.95,270.41 502.33,273.74 503.72,281.69 505.11,213.22 506.49,171.55 507.88,225.21 509.27,310.42 510.65,278.48 512.04,274.98 513.43,284.83 514.81,287.39 516.20,284.28 517.59,290.89 518.97,297.09 520.36,300.43 521.75,290.76 523.13,289.03 524.52,282.21 525.91,293.00 527.29,299.80 528.68,299.71 530.07,283.11 531.45,287.99 532.84,282.75 534.23,294.21 535.61,301.97 537.00,309.86 538.39,304.21 539.77,287.63 541.16,276.70 542.55,270.18 543.93,272.25 545.32,276.24 546.71,293.75 548.09,275.70 549.48,264.44 550.87,261.57 552.25,273.20 553.64,301.42 555.03,298.93 556.41,299.11 557.80,290.29 559.19,270.31 560.57,265.97 561.96,264.52 563.35,269.58 564.73,260.70 566.12,271.45 567.51,270.59 568.90,266.16 570.28,261.49 571.67,269.14 573.06,271.63 574.44,275.26 575.83,273.97 577.22,276.51 578.60,286.72 579.99,267.00 581.38,234.96 582.76,232.39 584.15,260.66 585.54,277.15 586.92,288.97 588.31,281.07 589.70,286.42 591.08,257.97 592.47,265.11 593.86,273.34 595.24,273.53 596.63,262.34 598.02,273.10 599.40,275.37 600.79,294.80 602.18,289.10 603.56,286.12 604.95,287.18 606.34,290.49 607.72,284.13 609.11,280.36 610.50,278.91 611.88,282.53 613.27,271.07 614.66,260.05 616.04,246.25 617.43,249.76 618.82,259.85 620.20,260.96 621.59,238.53 622.98,237.20 624.36,270.09 625.75,312.87 627.14,314.86 628.52,314.19 629.91,306.26 631.30,293.26 632.68,298.69 634.07,291.53 635.46,299.53 636.84,302.61 638.23,292.02 639.62,297.22 641.00,286.12 642.39,268.37 643.78,273.80 645.16,262.84 646.55,282.16 647.94,283.26 649.32,272.81 650.71,220.77 652.10,173.12 653.48,123.62 654.87,101.25 656.26,103.50 657.64,167.46 659.03,243.15 660.42,272.96 661.80,293.88 663.19,276.01 664.58,309.02 665.96,327.63 667.35,340.92 668.74,329.26 670.12,330.31 671.51,311.78 672.90,305.59 674.29,309.14 675.67,308.94 677.06,312.26 678.45,316.09 679.83,289.05 681.22,271.34 682.61,274.58 683.99,280.50 685.38,295.06 686.77,314.98 688.15,312.96 689.54,297.87 690.93,296.35 692.31,291.70 693.70,287.25 695.09,286.11 696.47,260.03 697.86,267.43 699.25,282.26 700.63,284.81 702.02,283.03 703.41,276.81 704.79,282.73 706.18,299.93 707.57,283.17 708.95,282.48 710.34,289.81 711.73,284.69 713.11,280.41 714.50,265.96 715.89,255.96 717.27,280.63 718.66,281.70 720.05,282.43 721.43,286.99 722.82,283.85 724.21,291.74 725.59,283.94 726.98,284.67 728.37,264.68 729.75,276.79 731.14,289.91 732.53,287.76 733.91,272.65 735.30,276.22 736.69,277.78 738.07,279.66 739.46,277.98 740.85,274.39 742.23,275.49 743.62,269.21 745.01,265.42 746.39,221.87 747.78,217.36 749.17,257.11 750.55,257.90 751.94,284.34 753.33,298.36 754.71,283.40 756.10,284.10 757.49,295.21 758.87,311.10 760.26,283.64 761.65,264.80 763.03,276.90 764.42,279.70 765.81,271.34 767.19,293.22 768.58,302.53 769.97,307.86 771.35,308.79 772.74,287.97 774.13,288.52 775.51,283.32 776.90,276.58 778.29,277.04 779.67,285.01 781.06,264.78 782.45,245.62 783.84,276.57 785.22,291.75 786.61,286.48 788.00,262.14 789.38,260.00 790.77,265.84 792.16,300.68 793.54,284.82 794.93,283.39 796.32,276.09 797.70,271.50 799.09,278.42 800.48,279.30 801.86,277.00 803.25,262.59 804.64,275.21 806.02,281.11 807.41,288.00 808.80,272.42 810.18,281.87 811.57,265.57 812.96,275.47 814.34,292.88 815.73,280.00 817.12,281.90 818.50,283.79 819.89,276.08 821.28,274.53 822.66,284.88 824.05,293.69 825.44,281.72 826.82,288.19 828.21,264.36 829.60,272.99 830.98,261.12 832.37,293.19 833.76,274.22 835.14,290.40 836.53,285.19 837.92,292.89 839.30,284.16 840.69,278.97 842.08,267.46 843.46,268.94 844.85,278.61 846.24,284.32 847.62,271.70 849.01,272.61 850.40,262.10 851.78,267.81 853.17,273.11 854.56,250.09 855.94,237.46 857.33,246.87 858.72,275.62 860.10,282.92 861.49,301.24 862.88,304.68 864.26,282.95 865.65,277.26 867.04,287.63 868.42,292.74 869.81,279.14 871.20,289.11 872.58,233.27 873.97,240.41 875.36,245.27 876.74,271.55 878.13,274.16 879.52,282.84 880.90,274.93 882.29,271.52 883.68,267.87 885.06,269.70 886.45,273.94 887.84,269.26 889.22,279.37 890.61,276.67 892.00,285.96 893.39,280.43 894.77,276.49 896.16,261.12 897.55,285.77 898.93,272.72 900.32,276.04 901.71,259.93 903.09,270.23 904.48,260.00 905.87,276.53 907.25,277.33 908.64,295.56 910.03,296.97 911.41,271.43 912.80,263.51 914.19,281.03 915.57,287.34 916.96,285.52 918.35,282.49 919.73,274.05 921.12,281.89 922.51,268.36 923.89,276.58 925.28,279.05 926.67,282.36 928.05,289.89 929.44,292.87 930.83,296.18 932.21,306.26 933.60,312.05 934.99,296.50 936.37,291.81 937.76,269.17 939.15,276.43 940.53,274.23 941.92,265.51 943.31,271.70"/>
<rect x="90" y="44" width="14" height="14" fill="#2f80ed"/>
<text class="small" x="110" y="56">congestion_ratio</text>
<rect x="260" y="44" width="14" height="14" fill="#d62728"/>
<text class="small" x="280" y="56">rolling_avg_congestion_20</text>
<text class="label" x="423.00" y="532">Chronological block order</text>
<text class="label" x="20" y="58">Gas used / gas limit</text>
</svg>