<svg xmlns="http://www.w3.org/2000/svg" width="920" height="560" viewBox="0 0 920 560">
<style>
text{font-family:Arial,Helvetica,sans-serif;fill:#1f2933}
.title{font-size:20px;font-weight:700}
.axis{stroke:#475569;stroke-width:1}
.grid{stroke:#e2e8f0;stroke-width:1}
.small{font-size:12px}
.label{font-size:13px;font-weight:600}
</style>
<rect width="920" height="560" fill="#ffffff"/>
<text class="title" x="24" y="32">Gas Used Distribution</text>
<line class="axis" x1="72" y1="488" x2="888" y2="488"/>
<line class="axis" x1="72" y1="488" x2="72" y2="68"/>
<rect x="72.00" y="464.84" width="25.20" height="23.16" fill="#2f80ed" opacity="0.82"/>
<rect x="99.20" y="441.68" width="25.20" height="46.32" fill="#2f80ed" opacity="0.82"/>
<rect x="126.40" y="430.11" width="25.20" height="57.89" fill="#2f80ed" opacity="0.82"/>
<rect x="153.60" y="410.11" width="25.20" height="77.89" fill="#2f80ed" opacity="0.82"/>
<rect x="180.80" y="401.68" width="25.20" height="86.32" fill="#2f80ed" opacity="0.82"/>
<rect x="208.00" y="393.26" width="25.20" height="94.74" fill="#2f80ed" opacity="0.82"/>
<rect x="235.20" y="345.89" width="25.20" height="142.11" fill="#2f80ed" opacity="0.82"/>
<rect x="262.40" y="354.32" width="25.20" height="133.68" fill="#2f80ed" opacity="0.82"/>
<rect x="289.60" y="337.47" width="25.20" height="150.53" fill="#2f80ed" opacity="0.82"/>
<rect x="316.80" y="274.32" width="25.20" height="213.68" fill="#2f80ed" opacity="0.82"/>
<rect x="344.00" y="226.95" width="25.20" height="261.05" fill="#2f80ed" opacity="0.82"/>
<rect x="371.20" y="122.74" width="25.20" height="365.26" fill="#2f80ed" opacity="0.82"/>
<rect x="398.40" y="68.00" width="25.20" height="420.00" fill="#2f80ed" opacity="0.82"/>
<rect x="425.60" y="68.00" width="25.20" height="420.00" fill="#2f80ed" opacity="0.82"/>
<rect x="452.80" y="99.58" width="25.20" height="388.42" fill="#2f80ed" opacity="0.82"/>
<rect x="480.00" y="130.11" width="25.20" height="357.89" fill="#2f80ed" opacity="0.82"/>
<rect x="507.20" y="197.47" width="25.20" height="290.53" fill="#2f80ed" opacity="0.82"/>
<rect x="534.40" y="244.84" width="25.20" height="243.16" fill="#2f80ed" opacity="0.82"/>
<rect x="561.60" y="272.21" width="25.20" height="215.79" fill="#2f80ed" opacity="0.82"/>
<rect x="588.80" y="303.79" width="25.20" height="184.21" fill="#2f80ed" opacity="0.82"/>
<rect x="616.00" y="363.79" width="25.20" height="124.21" fill="#2f80ed" opacity="0.82"/>
<rect x="643.20" y="351.16" width="25.20" height="136.84" fill="#2f80ed" opacity="0.82"/>
<rect x="670.40" y="379.58" width="25.20" height="108.42" fill="#2f80ed" opacity="0.82"/>
<rect x="697.60" y="399.58" width="25.20" height="88.42" fill="#2f80ed" opacity="0.82"/>
<rect x="724.80" y="409.05" width="25.20" height="78.95" fill="#2f80ed" opacity="0.82"/>
<rect x="752.00" y="404.84" width="25.20" height="83.16" fill="#2f80ed" opacity="0.82"/>
<rect x="779.20" y="400.63" width="25.20" height="87.37" fill="#2f80ed" opacity="0.82"/>
<rect x="806.40" y="419.58" width="25.20" height="68.42" fill="#2f80ed" opacity="0.82"/>
<rect x="833.60" y="421.68" width="25.20" height="66.32" fill="#2f80ed" opacity="0.82"/>
<rect x="860.80" y="242.74" width="25.20" height="245.26" fill="#2f80ed" opacity="0.82"/>
<line class="grid" x1="72" y1="488.00" x2="888" y2="488.00"/>
<text class="small" x="30" y="492.00">0</text>
<line class="grid" x1="72" y1="383.00" x2="888" y2="383.00"/>
<text class="small" x="30" y="387.00">100</text>
<line class="grid" x1="72" y1="278.00" x2="888" y2="278.00"/>
<text class="small" x="30" y="282.00">200</text>
<line class="grid" x1="72" y1="173.00" x2="888" y2="173.00"/>
<text class="small" x="30" y="177.00">299</text>
<line class="grid" x1="72" y1="68.00" x2="888" y2="68.00"/>
<text class="small" x="30" y="72.00">399</text>
<text class="label" x="410.00" y="536">Gas used per block</text>
<text class="small" x="72" y="512">0</text>
<text class="small" x="818" y="512">6e+07</text>
<text class="label" x="24" y="50">Row count</text>
</svg>