<svg xmlns="http://www.w3.org/2000/svg" width="980" height="560" viewBox="0 0 980 560">
<style>
text{font-family:Arial,Helvetica,sans-serif;fill:#1f2933}
.title{font-size:20px;font-weight:700}
.axis{stroke:#475569;stroke-width:1}
.grid{stroke:#e2e8f0;stroke-width:1}
.small{font-size:12px}
.label{font-size:13px;font-weight:600}
</style>
<rect width="980" height="560" fill="#ffffff"/>
<text class="title" x="24" y="32">Rolling Recent Activity Trends</text>
<line class="axis" x1="78" y1="482" x2="944" y2="482"/>
<line class="axis" x1="78" y1="482" x2="78" y2="76"/>
<line class="grid" x1="78" y1="482.00" x2="944" y2="482.00"/>
<text class="small" x="18" y="486.00">0</text>
<line class="grid" x1="78" y1="380.50" x2="944" y2="380.50"/>
<text class="small" x="18" y="384.50">0.25</text>
<line class="grid" x1="78" y1="279.00" x2="944" y2="279.00"/>
<text class="small" x="18" y="283.00">0.5</text>
<line class="grid" x1="78" y1="177.50" x2="944" y2="177.50"/>
<text class="small" x="18" y="181.50">0.75</text>
<line class="grid" x1="78" y1="76.00" x2="944" y2="76.00"/>
<text class="small" x="18" y="80.00">1</text>
<polyline fill="none" stroke="#2f80ed" stroke-width="2" points="78.00,143.79 79.39,320.68 80.77,313.05 82.16,316.69 83.55,299.09 84.93,312.79 86.32,335.58 87.71,347.66 89.09,333.47 90.48,322.37 91.87,324.81 93.25,337.91 94.64,333.26 96.03,329.19 97.41,262.48 98.80,321.99 100.19,274.34 101.57,330.22 102.96,343.71 104.35,314.25 105.73,329.36 107.12,353.56 108.51,332.23 109.89,320.86 111.28,307.70 112.67,302.23 114.05,270.23 115.44,288.58 116.83,305.86 118.21,297.41 119.60,321.29 120.99,313.28 122.37,307.75 123.76,280.03 125.15,269.96 126.53,270.07 127.92,272.29 129.31,280.46 130.69,280.68 132.08,315.22 133.47,357.46 134.86,352.37 136.24,305.26 137.63,280.41 139.02,303.04 140.40,302.01 141.79,309.97 143.18,303.31 144.56,273.59 145.95,277.86 147.34,313.11 148.72,345.33 150.11,333.42 151.50,341.97 152.88,323.18 154.27,328.11 155.66,375.00 157.04,380.80 158.43,379.44 159.82,339.05 161.20,297.25 162.59,316.58 163.98,346.25 165.36,374.30 166.75,359.68 168.14,367.21 169.52,336.56 170.91,316.47 172.30,386.59 173.68,382.80 175.07,389.41 176.46,343.76 177.84,346.41 179.23,389.08 180.62,386.92 182.00,390.92 183.39,389.68 184.78,370.73 186.16,383.88 187.55,358.65 188.94,373.05 190.32,362.93 191.71,369.05 193.10,360.65 194.48,355.78 195.87,348.42 197.26,353.07 198.64,359.90 200.03,363.63 201.42,345.87 202.80,363.31 204.19,364.82 205.58,359.30 206.96,356.00 208.35,350.42 209.74,354.86 211.12,363.25 212.51,340.89 213.90,363.63 215.28,364.88 216.67,379.55 218.06,369.05 219.44,350.37 220.83,371.59 222.22,371.16 223.60,362.77 224.99,361.09 226.38,363.69 227.76,352.32 229.15,346.20 230.54,324.54 231.92,352.15 233.31,365.09 234.70,352.53 236.08,360.76 237.47,371.11 238.86,378.69 240.24,353.99 241.63,356.27 243.02,359.95 244.41,379.50 245.79,359.68 247.18,366.56 248.57,382.10 249.95,376.20 251.34,383.83 252.73,377.82 254.11,363.09 255.50,357.68 256.89,375.11 258.27,385.73 259.66,386.65 261.05,380.26 262.43,367.69 263.82,357.68 265.21,365.96 266.59,358.54 267.98,355.94 269.37,347.12 270.75,361.95 272.14,348.26 273.53,336.23 274.91,331.69 276.30,339.27 277.69,328.22 279.07,300.50 280.46,281.71 281.85,275.70 283.23,315.50 284.62,325.30 286.01,351.29 287.39,343.60 288.78,335.10 290.17,324.59 291.55,292.43 292.94,279.65 294.33,306.07 295.71,315.82 297.10,332.34 298.49,319.88 299.87,298.93 301.26,297.84 302.65,329.90 304.03,338.40 305.42,326.11 306.81,326.43 308.19,290.32 309.58,319.18 310.97,306.78 312.35,317.01 313.74,296.76 315.13,280.95 316.51,295.24 317.90,289.29 319.29,308.46 320.67,321.34 322.06,301.74 323.45,327.14 324.83,317.44 326.22,329.41 327.61,343.54 328.99,328.00 330.38,315.66 331.77,295.68 333.15,276.08 334.54,273.86 335.93,326.43 337.31,337.10 338.70,340.02 340.09,332.88 341.47,322.75 342.86,303.53 344.25,323.18 345.63,319.23 347.02,325.46 348.41,342.46 349.80,358.16 351.18,322.16 352.57,322.48 353.96,348.74 355.34,336.07 356.73,330.66 358.12,321.99 359.50,304.72 360.89,312.25 362.28,331.69 363.66,335.80 365.05,340.51 366.44,319.34 367.82,299.36 369.21,291.56 370.60,291.94 371.98,294.11 373.37,312.63 374.76,272.45 376.14,239.04 377.53,234.11 378.92,290.37 380.30,304.67 381.69,312.30 383.08,288.96 384.46,291.67 385.85,275.16 387.24,299.47 388.62,293.73 390.01,286.47 391.40,301.36 392.78,307.16 394.17,301.85 395.56,312.63 396.94,257.83 398.33,264.22 399.72,252.68 401.10,281.60 402.49,274.51 403.88,280.68 405.26,283.66 406.65,292.32 408.04,293.19 409.42,307.37 410.81,286.42 412.20,301.63 413.58,310.24 414.97,302.77 416.36,319.61 417.74,313.55 419.13,326.92 420.52,301.36 421.90,300.01 423.29,324.16 424.68,326.43 426.06,319.83 427.45,315.71 428.84,307.75 430.22,296.11 431.61,298.06 433.00,294.05 434.38,309.32 435.77,290.15 437.16,264.70 438.54,249.00 439.93,235.63 441.32,263.68 442.70,261.35 444.09,266.93 445.48,315.33 446.86,308.67 448.25,315.01 449.64,313.76 451.02,307.64 452.41,341.16 453.80,340.51 455.18,332.39 456.57,308.56 457.96,302.77 459.35,285.39 460.73,294.97 462.12,298.98 463.51,312.63 464.89,335.37 466.28,353.89 467.67,328.22 469.05,306.72 470.44,284.90 471.83,314.09 473.21,314.20 474.60,314.36 475.99,295.41 477.37,288.42 478.76,262.76 480.15,264.49 481.53,307.59 482.92,304.99 484.31,327.84 485.69,340.40 487.08,338.45 488.47,307.48 489.85,327.08 491.24,329.79 492.63,340.40 494.01,349.12 495.40,347.06 496.79,333.20 498.17,312.52 499.56,306.78 500.95,249.38 502.33,248.62 503.72,251.87 505.11,170.54 506.49,78.54 507.88,150.07 509.27,287.77 510.65,272.34 512.04,316.69 513.43,326.92 514.81,328.60 516.20,350.15 517.59,364.01 518.97,366.07 520.36,333.31 521.75,308.35 523.13,256.47 524.52,253.50 525.91,286.63 527.29,310.35 528.68,314.90 530.07,299.96 531.45,312.90 532.84,317.93 534.23,326.33 535.61,315.44 537.00,303.10 538.39,293.62 539.77,269.20 541.16,260.81 542.55,292.32 543.93,294.70 545.32,286.04 546.71,315.93 548.09,328.76 549.48,333.96 550.87,342.30 552.25,320.42 553.64,343.54 555.03,332.06 556.41,327.25 557.80,313.00 559.19,282.79 560.57,267.14 561.96,282.74 563.35,293.46 564.73,260.59 566.12,254.31 567.51,285.17 568.90,307.32 570.28,294.59 571.67,282.14 573.06,302.12 574.44,330.87 575.83,341.27 577.22,350.04 578.60,353.62 579.99,332.06 581.38,303.47 582.76,340.73 584.15,357.46 585.54,350.42 586.92,364.66 588.31,345.93 589.70,342.30 591.08,288.80 592.47,289.99 593.86,325.68 595.24,344.30 596.63,347.50 598.02,346.52 599.40,349.45 600.79,377.39 602.18,369.91 603.56,359.95 604.95,355.73 606.34,367.91 607.72,381.23 609.11,364.34 610.50,353.18 611.88,352.48 613.27,360.28 614.66,371.70 616.04,362.60 617.43,348.96 618.82,345.60 620.20,343.44 621.59,341.43 622.98,341.38 624.36,349.88 625.75,353.34 627.14,342.52 628.52,342.35 629.91,347.12 631.30,317.23 632.68,312.25 634.07,303.85 635.46,329.79 636.84,332.01 638.23,320.53 639.62,337.37 641.00,326.81 642.39,311.54 643.78,317.28 645.16,275.43 646.55,314.79 647.94,349.88 649.32,362.50 650.71,350.69 652.10,399.05 653.48,441.77 654.87,461.91 656.26,465.16 657.64,450.54 659.03,430.18 660.42,444.75 661.80,431.97 663.19,429.64 664.58,428.01 665.96,429.04 667.35,424.82 668.74,392.66 670.12,387.95 671.51,387.24 672.90,394.93 674.29,406.57 675.67,410.09 677.06,397.91 678.45,379.12 679.83,376.68 681.22,380.58 682.61,406.14 683.99,401.27 685.38,391.90 686.77,406.03 688.15,403.70 689.54,388.27 690.93,389.52 692.31,374.35 693.70,373.11 695.09,362.01 696.47,343.98 697.86,353.83 699.25,356.21 700.63,363.80 702.02,366.50 703.41,347.98 704.79,342.68 706.18,377.60 707.57,352.48 708.95,344.25 710.34,348.09 711.73,348.04 713.11,353.67 714.50,358.11 715.89,360.22 717.27,362.66 718.66,371.86 720.05,346.20 721.43,349.50 722.82,330.06 724.21,360.87 725.59,357.79 726.98,367.10 728.37,355.78 729.75,367.75 731.14,367.59 732.53,366.50 733.91,358.71 735.30,367.53 736.69,346.36 738.07,332.12 739.46,327.57 740.85,345.22 742.23,347.82 743.62,388.05 745.01,394.71 746.39,389.52 747.78,378.36 749.17,398.83 750.55,356.32 751.94,352.42 753.33,368.18 754.71,372.68 756.10,369.48 757.49,381.07 758.87,377.87 760.26,396.18 761.65,393.74 763.03,410.74 764.42,390.98 765.81,368.13 767.19,353.07 768.58,358.11 769.97,367.32 771.35,375.38 772.74,354.10 774.13,357.51 775.51,379.66 776.90,404.35 778.29,402.19 779.67,440.04 781.06,422.22 782.45,393.79 783.84,373.70 785.22,373.92 786.61,387.57 788.00,367.26 789.38,356.21 790.77,342.19 792.16,365.53 793.54,375.38 794.93,392.17 796.32,403.49 797.70,379.88 799.09,345.17 800.48,347.61 801.86,357.35 803.25,368.89 804.64,391.84 806.02,394.17 807.41,404.35 808.80,407.22 810.18,427.36 811.57,390.06 812.96,365.31 814.34,356.16 815.73,407.49 817.12,419.68 818.50,415.45 819.89,392.28 821.28,378.85 822.66,386.70 824.05,390.65 825.44,383.18 826.82,388.81 828.21,396.72 829.60,412.20 830.98,384.91 832.37,383.34 833.76,397.20 835.14,410.47 836.53,416.26 837.92,427.80 839.30,431.21 840.69,426.55 842.08,410.42 843.46,413.83 844.85,426.77 846.24,439.01 847.62,434.62 849.01,432.94 850.40,389.68 851.78,366.88 853.17,367.86 854.56,356.32 855.94,379.61 857.33,395.96 858.72,396.55 860.10,385.73 861.49,382.64 862.88,382.42 864.26,375.87 865.65,366.29 867.04,367.75 868.42,375.87 869.81,370.08 871.20,375.87 872.58,393.68 873.97,414.86 875.36,409.77 876.74,398.99 878.13,380.15 879.52,405.49 880.90,399.91 882.29,389.52 883.68,375.92 885.06,404.79 886.45,394.88 887.84,409.01 889.22,417.73 890.61,399.70 892.00,389.19 893.39,399.91 894.77,409.23 896.16,396.55 897.55,404.35 898.93,417.19 900.32,427.53 901.71,385.45 903.09,395.09 904.48,389.95 905.87,411.61 907.25,394.77 908.64,391.03 910.03,397.85 911.41,404.68 912.80,416.86 914.19,420.00 915.57,427.64 916.96,417.62 918.35,416.16 919.73,422.33 921.12,412.31 922.51,413.45 923.89,410.80 925.28,412.37 926.67,404.41 928.05,396.34 929.44,385.29 930.83,403.76 932.21,402.62 933.60,408.36 934.99,405.38 936.37,417.08 937.76,403.92 939.15,418.92 940.53,412.26 941.92,402.29 943.31,391.41"/>
<polyline fill="none" stroke="#27ae60" stroke-width="2" points="78.00,289.03 79.39,367.41 80.77,369.97 82.16,341.17 83.55,330.43 84.93,334.67 86.32,385.37 87.71,417.06 89.09,422.43 90.48,425.57 91.87,401.27 93.25,357.61 94.64,338.75 96.03,389.87 97.41,331.73 98.80,427.45 100.19,380.84 101.57,389.14 102.96,368.80 104.35,368.81 105.73,376.07 107.12,372.84 108.51,352.70 109.89,356.05 111.28,351.43 112.67,389.71 114.05,375.82 115.44,390.31 116.83,373.92 118.21,362.16 119.60,390.06 120.99,405.75 122.37,385.25 123.76,366.66 125.15,382.28 126.53,387.72 127.92,387.99 129.31,373.48 130.69,360.31 132.08,356.04 133.47,389.54 134.86,383.46 136.24,368.35 137.63,383.63 139.02,374.63 140.40,376.88 141.79,386.66 143.18,373.10 144.56,381.81 145.95,375.57 147.34,370.66 148.72,378.44 150.11,355.65 151.50,390.81 152.88,357.75 154.27,383.73 155.66,424.68 157.04,406.59 158.43,354.46 159.82,367.32 161.20,374.44 162.59,380.33 163.98,374.48 165.36,373.85 166.75,394.92 168.14,414.48 169.52,397.52 170.91,345.25 172.30,412.87 173.68,369.14 175.07,372.97 176.46,368.21 177.84,348.75 179.23,386.25 180.62,369.14 182.00,349.51 183.39,368.20 184.78,338.42 186.16,349.02 187.55,335.38 188.94,366.21 190.32,367.42 191.71,402.86 193.10,395.86 194.48,398.30 195.87,388.51 197.26,408.93 198.64,403.14 200.03,375.81 201.42,356.67 202.80,371.14 204.19,386.12 205.58,385.76 206.96,382.46 208.35,390.46 209.74,379.26 211.12,386.36 212.51,386.01 213.90,398.58 215.28,370.06 216.67,347.45 218.06,304.67 219.44,281.27 220.83,332.67 222.22,366.66 223.60,381.14 224.99,369.59 226.38,388.10 227.76,370.06 229.15,362.93 230.54,341.87 231.92,375.49 233.31,381.02 234.70,374.53 236.08,399.85 237.47,387.43 238.86,401.11 240.24,375.30 241.63,381.73 243.02,379.12 244.41,403.43 245.79,366.85 247.18,359.44 248.57,379.08 249.95,337.47 251.34,341.13 252.73,343.26 254.11,367.41 255.50,370.31 256.89,378.27 258.27,382.46 259.66,353.06 261.05,329.62 262.43,380.97 263.82,402.66 265.21,412.35 266.59,385.95 267.98,395.24 269.37,377.75 270.75,403.01 272.14,408.33 273.53,421.49 274.91,414.66 276.30,408.59 277.69,402.21 279.07,383.04 280.46,388.27 281.85,337.41 283.23,343.75 284.62,315.57 286.01,379.39 287.39,387.31 288.78,394.35 290.17,406.36 291.55,416.57 292.94,401.66 294.33,399.42 295.71,399.65 297.10,406.62 298.49,398.93 299.87,388.08 301.26,390.87 302.65,412.24 304.03,390.90 305.42,377.00 306.81,353.91 308.19,327.95 309.58,358.30 310.97,370.60 312.35,384.43 313.74,356.42 315.13,297.20 316.51,306.18 317.90,268.75 319.29,347.38 320.67,393.01 322.06,404.68 323.45,400.17 324.83,397.31 326.22,411.07 327.61,420.10 328.99,417.80 330.38,383.02 331.77,376.61 333.15,385.42 334.54,362.10 335.93,368.41 337.31,352.62 338.70,392.69 340.09,386.73 341.47,360.69 342.86,350.11 344.25,372.57 345.63,339.96 347.02,319.53 348.41,330.08 349.80,383.45 351.18,331.67 352.57,356.48 353.96,396.13 355.34,389.53 356.73,400.29 358.12,410.01 359.50,405.24 360.89,391.21 362.28,385.34 363.66,405.54 365.05,391.54 366.44,386.42 367.82,347.90 369.21,355.15 370.60,378.11 371.98,391.36 373.37,392.30 374.76,362.77 376.14,347.47 377.53,376.71 378.92,404.21 380.30,398.59 381.69,369.86 383.08,332.65 384.46,287.09 385.85,292.26 387.24,351.63 388.62,389.99 390.01,388.89 391.40,401.08 392.78,405.93 394.17,419.56 395.56,414.74 396.94,350.20 398.33,332.56 399.72,351.41 401.10,390.94 402.49,398.81 403.88,386.85 405.26,388.13 406.65,396.63 408.04,395.98 409.42,381.57 410.81,327.14 412.20,340.32 413.58,406.50 414.97,396.88 416.36,365.40 417.74,299.56 419.13,352.94 420.52,378.18 421.90,347.21 423.29,365.22 424.68,371.02 426.06,416.88 427.45,415.05 428.84,420.14 430.22,404.80 431.61,404.33 433.00,400.61 434.38,419.52 435.77,393.91 437.16,377.24 438.54,373.62 439.93,379.74 441.32,381.06 442.70,342.39 444.09,356.05 445.48,399.61 446.86,401.55 448.25,363.03 449.64,335.51 451.02,305.18 452.41,357.61 453.80,368.22 455.18,383.19 456.57,370.72 457.96,390.29 459.35,358.63 460.73,358.13 462.12,367.35 463.51,359.27 464.89,363.95 466.28,369.87 467.67,386.33 469.05,386.53 470.44,367.42 471.83,377.19 473.21,410.86 474.60,421.29 475.99,412.28 477.37,411.68 478.76,382.43 480.15,381.35 481.53,375.11 482.92,367.68 484.31,352.86 485.69,378.10 487.08,396.84 488.47,374.63 489.85,396.79 491.24,416.16 492.63,398.62 494.01,384.71 495.40,391.75 496.79,394.36 498.17,391.32 499.56,406.06 500.95,367.39 502.33,372.81 503.72,385.68 505.11,274.33 506.49,206.54 507.88,293.82 509.27,432.45 510.65,380.58 512.04,374.86 513.43,390.74 514.81,394.89 516.20,389.83 517.59,400.60 518.97,410.69 520.36,416.12 521.75,400.39 523.13,397.58 524.52,386.46 525.91,404.04 527.29,415.09 528.68,414.94 530.07,388.01 531.45,395.95 532.84,387.43 534.23,406.07 535.61,418.71 537.00,431.49 538.39,422.27 539.77,395.30 541.16,377.53 542.55,366.95 543.93,370.34 545.32,376.83 546.71,405.26 548.09,375.93 549.48,357.64 550.87,353.04 552.25,371.96 553.64,417.79 555.03,413.72 556.41,413.98 557.80,399.63 559.19,367.12 560.57,360.11 561.96,357.77 563.35,366.00 564.73,351.52 566.12,369.02 567.51,367.60 568.90,360.39 570.28,352.79 571.67,365.23 573.06,369.32 574.44,375.32 575.83,373.21 577.22,377.40 578.60,394.02 579.99,361.96 581.38,309.64 582.76,305.45 584.15,351.46 585.54,378.30 586.92,397.51 588.31,384.68 589.70,393.39 591.08,347.19 592.47,358.74 593.86,372.16 595.24,372.46 596.63,354.27 598.02,371.79 599.40,375.42 600.79,406.98 602.18,397.70 603.56,392.85 604.95,394.60 606.34,399.98 607.72,389.61 609.11,383.50 610.50,381.16 611.88,387.02 613.27,368.38 614.66,350.47 616.04,328.05 617.43,333.80 618.82,350.18 620.20,351.94 621.59,315.43 622.98,313.32 624.36,366.80 625.75,436.36 627.14,439.58 628.52,438.50 629.91,425.61 631.30,404.48 632.68,413.33 634.07,401.68 635.46,414.70 636.84,419.67 638.23,402.44 639.62,410.89 641.00,392.84 642.39,363.97 643.78,372.82 645.16,354.99 646.55,386.45 647.94,388.25 649.32,371.26 650.71,286.59 652.10,209.19 653.48,128.71 654.87,92.33 656.26,95.95 657.64,200.09 659.03,323.18 660.42,371.59 661.80,405.51 663.19,376.47 664.58,430.11 665.96,460.39 667.35,482.00 668.74,463.03 670.12,464.73 671.51,434.59 672.90,424.50 674.29,430.29 675.67,429.98 677.06,435.43 678.45,441.69 679.83,397.68 681.22,368.80 682.61,374.08 683.99,383.71 685.38,407.45 686.77,439.85 688.15,436.55 689.54,411.97 690.93,409.51 692.31,401.91 693.70,394.71 695.09,392.85 696.47,350.41 697.86,362.43 699.25,386.55 700.63,390.72 702.02,387.82 703.41,377.72 704.79,387.40 706.18,415.35 707.57,388.06 708.95,386.95 710.34,398.88 711.73,390.53 713.11,383.57 714.50,360.08 715.89,343.81 717.27,383.91 718.66,385.65 720.05,386.83 721.43,394.24 722.82,389.15 724.21,402.00 725.59,389.29 726.98,390.49 728.37,357.99 729.75,377.70 731.14,399.06 732.53,395.51 733.91,370.95 735.30,376.78 736.69,379.34 738.07,382.37 739.46,379.64 740.85,373.79 742.23,375.58 743.62,365.36 745.01,359.19 746.39,288.46 747.78,281.18 749.17,345.73 750.55,346.94 751.94,389.95 753.33,412.74 754.71,388.41 756.10,389.59 757.49,407.66 758.87,433.49 760.26,388.83 761.65,358.21 763.03,377.87 764.42,382.40 765.81,368.82 767.19,404.43 768.58,419.55 769.97,428.24 771.35,429.76 772.74,395.89 774.13,396.74 775.51,388.31 776.90,377.40 778.29,378.21 779.67,391.19 781.06,358.18 782.45,327.01 783.84,377.34 785.22,402.01 786.61,393.43 788.00,353.88 789.38,350.39 790.77,359.90 792.16,416.54 793.54,390.73 794.93,388.39 796.32,376.52 797.70,369.05 799.09,380.33 800.48,381.76 801.86,378.00 803.25,354.59 804.64,375.12 806.02,384.71 807.41,395.92 808.80,370.59 810.18,386.07 811.57,359.63 812.96,375.62 814.34,403.93 815.73,382.94 817.12,386.00 818.50,389.06 819.89,376.54 821.28,374.08 822.66,390.90 824.05,405.16 825.44,385.66 826.82,396.22 828.21,357.57 829.60,371.59 830.98,352.24 832.37,404.33 833.76,373.49 835.14,399.82 836.53,391.37 837.92,403.90 839.30,389.69 840.69,381.22 842.08,362.54 843.46,365.02 844.85,380.78 846.24,389.99 847.62,369.48 849.01,371.02 850.40,353.98 851.78,363.29 853.17,371.80 854.56,334.32 855.94,313.79 857.33,329.07 858.72,375.81 860.10,387.66 861.49,417.48 862.88,423.10 864.26,387.74 865.65,378.49 867.04,395.34 868.42,403.64 869.81,381.51 871.20,397.76 872.58,306.98 873.97,318.55 875.36,326.44 876.74,369.27 878.13,373.50 879.52,387.69 880.90,374.75 882.29,369.17 883.68,363.16 885.06,366.23 886.45,373.12 887.84,365.49 889.22,381.87 890.61,377.50 892.00,392.61 893.39,383.64 894.77,377.22 896.16,352.20 897.55,392.28 898.93,371.08 900.32,376.49 901.71,350.26 903.09,367.04 904.48,350.52 905.87,377.66 907.25,378.94 908.64,408.35 910.03,410.52 911.41,368.97 912.80,356.11 914.19,384.65 915.57,394.89 916.96,391.87 918.35,386.94 919.73,373.25 921.12,386.01 922.51,363.99 923.89,377.33 925.28,381.35 926.67,386.74 928.05,399.00 929.44,403.84 930.83,409.20 932.21,425.60 933.60,435.02 934.99,409.72 936.37,402.11 937.76,365.36 939.15,377.18 940.53,373.51 941.92,359.53 943.31,369.60"/>
<polyline fill="none" stroke="#f2994a" stroke-width="2" points="78.00,479.70 79.39,479.44 80.77,479.51 82.16,478.97 83.55,477.71 84.93,475.91 86.32,476.20 87.71,477.18 89.09,479.00 90.48,480.29 91.87,481.40 93.25,481.60 94.64,481.52 96.03,481.08 97.41,481.05 98.80,481.11 100.19,481.44 101.57,481.94 102.96,481.67 104.35,481.53 105.73,481.44 107.12,481.84 108.51,481.70 109.89,481.05 111.28,480.75 112.67,480.77 114.05,480.69 115.44,480.83 116.83,480.73 118.21,480.75 119.60,480.24 120.99,480.49 122.37,480.75 123.76,480.85 125.15,480.51 126.53,480.71 127.92,481.21 129.31,481.50 130.69,481.47 132.08,481.26 133.47,481.24 134.86,481.25 136.24,481.22 137.63,481.18 139.02,481.15 140.40,481.07 141.79,481.00 143.18,481.11 144.56,480.96 145.95,480.87 147.34,481.02 148.72,480.81 150.11,480.60 151.50,480.14 152.88,480.22 154.27,480.53 155.66,480.85 157.04,481.53 158.43,481.72 159.82,481.23 161.20,480.73 162.59,480.77 163.98,480.64 165.36,480.25 166.75,480.27 168.14,481.01 169.52,481.51 170.91,481.74 172.30,481.69 173.68,481.76 175.07,481.64 176.46,481.21 177.84,481.18 179.23,481.18 180.62,481.31 182.00,481.15 183.39,480.29 184.78,479.41 186.16,478.44 187.55,477.64 188.94,476.80 190.32,476.38 191.71,476.92 193.10,477.79 194.48,478.20 195.87,478.61 197.26,479.26 198.64,480.19 200.03,480.55 201.42,480.28 202.80,479.71 204.19,479.62 205.58,479.82 206.96,479.96 208.35,480.06 209.74,480.25 211.12,480.25 212.51,480.35 213.90,480.69 215.28,480.83 216.67,480.56 218.06,478.82 219.44,475.47 220.83,472.56 222.22,471.31 223.60,470.92 224.99,470.89 226.38,471.33 227.76,471.60 229.15,470.54 230.54,469.30 231.92,468.65 233.31,468.39 234.70,468.49 236.08,469.17 237.47,469.93 238.86,470.41 240.24,470.73 241.63,470.89 243.02,470.53 244.41,470.85 245.79,471.09 247.18,470.60 248.57,469.52 249.95,468.65 251.34,466.59 252.73,463.43 254.11,461.81 255.50,461.00 256.89,460.53 258.27,460.92 259.66,460.04 261.05,456.72 262.43,453.22 263.82,454.63 265.21,457.68 266.59,459.99 267.98,461.13 269.37,462.13 270.75,462.94 272.14,464.97 273.53,467.78 274.91,470.39 276.30,472.51 277.69,474.14 279.07,474.93 280.46,475.50 281.85,475.28 283.23,473.42 284.62,470.92 286.01,469.33 287.39,469.58 288.78,471.00 290.17,472.40 291.55,473.86 292.94,475.39 294.33,476.47 295.71,477.40 297.10,478.33 298.49,479.30 299.87,479.60 301.26,480.01 302.65,480.32 304.03,480.93 305.42,481.20 306.81,481.04 308.19,480.46 309.58,479.48 310.97,479.23 312.35,479.49 313.74,479.28 315.13,477.89 316.51,474.21 317.90,469.33 319.29,465.20 320.67,463.78 322.06,464.97 323.45,466.39 324.83,468.39 326.22,469.45 327.61,470.71 328.99,472.72 330.38,473.74 331.77,473.65 333.15,473.53 334.54,473.87 335.93,473.25 337.31,472.63 338.70,472.43 340.09,473.32 341.47,473.04 342.86,472.36 344.25,471.78 345.63,470.97 347.02,467.59 348.41,465.10 349.80,463.63 351.18,462.38 352.57,460.69 353.96,460.21 355.34,462.00 356.73,463.39 358.12,465.42 359.50,467.80 360.89,468.85 362.28,469.57 363.66,470.09 365.05,471.54 366.44,472.05 367.82,471.74 369.21,470.38 370.60,468.81 371.98,468.54 373.37,469.60 374.76,469.38 376.14,468.51 377.53,467.32 378.92,467.57 380.30,469.25 381.69,469.95 383.08,468.50 384.46,463.23 385.85,454.41 387.24,447.23 388.62,446.77 390.01,449.19 391.40,451.01 392.78,453.89 394.17,458.11 395.56,461.88 396.94,462.67 398.33,459.60 399.72,455.98 401.10,455.65 402.49,456.72 403.88,457.27 405.26,458.26 406.65,459.36 408.04,461.29 409.42,462.15 410.81,459.72 412.20,456.04 413.58,454.55 414.97,457.01 416.36,457.20 417.74,454.28 419.13,448.38 420.52,446.59 421.90,447.30 423.29,445.60 424.68,444.63 426.06,448.69 427.45,453.48 428.84,457.34 430.22,460.86 431.61,462.89 433.00,464.99 434.38,467.03 435.77,469.13 437.16,469.45 438.54,469.04 439.93,469.55 441.32,470.72 442.70,470.87 444.09,470.20 445.48,470.58 446.86,471.82 448.25,472.33 449.64,470.21 451.02,466.18 452.41,462.04 453.80,460.89 455.18,459.98 456.57,460.31 457.96,461.25 459.35,461.31 460.73,459.78 462.12,458.31 463.51,456.33 464.89,454.65 466.28,453.41 467.67,453.55 469.05,453.94 470.44,455.22 471.83,454.34 473.21,455.27 474.60,459.25 475.99,463.31 477.37,466.18 478.76,467.66 480.15,468.27 481.53,468.34 482.92,468.43 484.31,466.72 485.69,465.78 487.08,465.92 488.47,466.04 489.85,465.93 491.24,467.05 492.63,469.05 494.01,469.30 495.40,469.69 496.79,469.98 498.17,470.51 499.56,471.53 500.95,472.13 502.33,471.71 503.72,471.70 505.11,470.11 506.49,456.84 507.88,444.98 509.27,442.72 510.65,448.06 512.04,446.92 513.43,447.04 514.81,449.48 516.20,450.28 517.59,450.26 518.97,452.68 520.36,455.84 521.75,458.34 523.13,460.51 524.52,461.57 525.91,463.07 527.29,465.51 528.68,468.12 530.07,469.55 531.45,470.17 532.84,470.94 534.23,472.17 535.61,473.73 537.00,475.70 538.39,477.74 539.77,478.76 541.16,478.85 542.55,478.67 543.93,478.34 545.32,478.09 546.71,478.59 548.09,479.05 549.48,478.84 550.87,477.85 552.25,477.64 553.64,478.19 555.03,479.31 556.41,480.43 557.80,481.16 559.19,481.58 560.57,481.39 561.96,481.24 563.35,481.02 564.73,480.67 566.12,480.22 567.51,480.03 568.90,479.58 570.28,478.88 571.67,478.23 573.06,477.94 574.44,477.63 575.83,477.64 577.22,477.59 578.60,477.71 579.99,477.47 581.38,476.29 582.76,473.18 584.15,470.35 585.54,469.54 586.92,470.06 588.31,470.86 589.70,471.79 591.08,471.75 592.47,470.88 593.86,469.24 595.24,468.41 596.63,467.48 598.02,465.96 599.40,465.03 600.79,465.53 602.18,466.60 603.56,467.48 604.95,468.76 606.34,469.48 607.72,470.44 609.11,471.11 610.50,471.37 611.88,471.64 613.27,471.83 614.66,470.71 616.04,468.35 617.43,465.33 618.82,463.22 620.20,462.62 621.59,459.98 622.98,453.72 624.36,450.12 625.75,452.19 627.14,458.57 628.52,463.62 629.91,467.25 631.30,470.03 632.68,471.99 634.07,473.73 635.46,475.49 636.84,476.87 638.23,478.25 639.62,479.42 641.00,480.00 642.39,480.59 643.78,480.30 645.16,480.13 646.55,480.06 647.94,480.49 649.32,480.52 650.71,479.28 652.10,473.73 653.48,459.58 654.87,421.97 656.26,328.63 657.64,201.18 659.03,100.90 660.42,76.92 661.80,87.50 663.19,105.53 664.58,135.59 665.96,189.38 667.35,260.81 668.74,316.55 670.12,357.40 671.51,383.10 672.90,401.20 674.29,413.21 675.67,424.50 677.06,435.56 678.45,444.23 679.83,449.84 681.22,451.15 682.61,449.90 683.99,449.18 685.38,451.22 686.77,455.73 688.15,460.92 689.54,465.04 690.93,467.29 692.31,469.23 693.70,470.44 695.09,471.53 696.47,471.66 697.86,470.96 699.25,470.23 700.63,471.12 702.02,472.31 703.41,472.44 704.79,473.29 706.18,474.57 707.57,475.62 708.95,476.01 710.34,476.31 711.73,477.11 713.11,477.61 714.50,477.45 715.89,477.08 717.27,476.43 718.66,476.89 720.05,478.07 721.43,478.58 722.82,479.14 724.21,479.89 725.59,480.17 726.98,480.46 728.37,480.54 729.75,480.34 731.14,480.39 732.53,481.04 733.91,481.20 735.30,481.14 736.69,481.05 738.07,481.18 739.46,481.21 740.85,481.35 742.23,481.22 743.62,481.18 745.01,480.87 746.39,479.16 747.78,476.10 749.17,473.69 750.55,471.53 751.94,470.63 753.33,471.30 754.71,472.76 756.10,472.92 757.49,473.69 758.87,475.53 760.26,476.25 761.65,476.17 763.03,475.45 764.42,475.37 765.81,475.11 767.19,475.25 768.58,476.26 769.97,478.23 771.35,479.83 772.74,480.88 774.13,481.28 775.51,481.47 776.90,481.52 778.29,481.45 779.67,481.66 781.06,481.53 782.45,480.75 783.84,479.93 785.22,480.30 786.61,481.08 788.00,481.36 789.38,480.37 790.77,479.65 792.16,479.89 793.54,480.78 794.93,481.14 796.32,481.11 797.70,481.00 799.09,480.72 800.48,480.82 801.86,480.68 803.25,480.59 804.64,480.27 806.02,480.17 807.41,480.25 808.80,480.37 810.18,480.08 811.57,479.64 812.96,479.17 814.34,479.13 815.73,479.42 817.12,479.95 818.50,480.09 819.89,480.17 821.28,479.96 822.66,479.96 824.05,480.26 825.44,480.59 826.82,480.67 828.21,480.80 829.60,480.36 830.98,480.00 832.37,480.13 833.76,480.38 835.14,480.64 836.53,480.92 837.92,481.40 839.30,481.74 840.69,481.90 842.08,481.61 843.46,481.43 844.85,481.50 846.24,481.45 847.62,481.46 849.01,481.17 850.40,480.73 851.78,480.35 853.17,479.95 854.56,479.21 855.94,477.43 857.33,475.30 858.72,474.51 860.10,474.57 861.49,475.42 862.88,476.89 864.26,478.05 865.65,478.26 867.04,478.43 868.42,479.01 869.81,479.55 871.20,479.46 872.58,478.66 873.97,476.08 875.36,473.65 876.74,473.16 878.13,473.12 879.52,473.36 880.90,473.14 882.29,472.92 883.68,472.50 885.06,472.76 886.45,472.71 887.84,473.23 889.22,472.88 890.61,472.74 892.00,473.16 893.39,474.11 894.77,473.62 896.16,473.12 897.55,472.86 898.93,473.34 900.32,473.35 901.71,472.95 903.09,472.17 904.48,471.53 905.87,470.83 907.25,470.22 908.64,471.31 910.03,472.49 911.41,473.09 912.80,472.52 914.19,471.85 915.57,471.61 916.96,472.48 918.35,472.60 919.73,472.62 921.12,472.43 922.51,472.61 923.89,472.84 925.28,472.93 926.67,473.09 928.05,473.73 929.44,474.61 930.83,475.49 932.21,476.78 933.60,478.50 934.99,480.14 936.37,481.09 937.76,481.24 939.15,481.25 940.53,481.27 941.92,481.27 943.31,481.36"/>
<rect x="90" y="44" width="14" height="14" fill="#2f80ed"/>
<text class="small" x="110" y="56">rolling_avg_txn_20</text>
<rect x="260" y="44" width="14" height="14" fill="#27ae60"/>
<text class="small" x="280" y="56">rolling_avg_gas_used_20</text>
<rect x="430" y="44" width="14" height="14" fill="#f2994a"/>
<text class="small" x="450" y="56">rolling_avg_base_fee_20</text>
<text class="label" x="423.00" y="532">Chronological block order</text>
<text class="label" x="20" y="58">Normalized rolling values</text>
</svg>