<svg xmlns="http://www.w3.org/2000/svg" width="980" height="560" viewBox="0 0 980 560">
<style>
text{font-family:Arial,Helvetica,sans-serif;fill:#1f2933}
.title{font-size:20px;font-weight:700}
.axis{stroke:#475569;stroke-width:1}
.grid{stroke:#e2e8f0;stroke-width:1}
.small{font-size:12px}
.label{font-size:13px;font-weight:600}
</style>
<rect width="980" height="560" fill="#ffffff"/>
<text class="title" x="24" y="32">High Congestion Blocks Over Time</text>
<line class="axis" x1="78" y1="482" x2="944" y2="482"/>
<line class="axis" x1="78" y1="482" x2="78" y2="76"/>
<line x1="78" y1="157.20" x2="944" y2="157.20" stroke="#d62728" stroke-dasharray="6 6"/>
<text class="small" x="86" y="149.20">0.80 high congestion threshold</text>
<polyline fill="none" stroke="#2f80ed" stroke-width="2" points="78.00,222.30 79.39,294.04 80.77,181.62 82.16,309.94 83.55,140.51 84.93,451.62 86.32,116.77 87.71,306.46 89.09,391.33 90.48,319.82 91.87,287.02 93.25,473.41 94.64,76.50 96.03,341.12 97.41,244.23 98.80,449.66 100.19,457.36 101.57,415.77 102.96,76.06 104.35,260.76 105.73,148.60 107.12,76.08 108.51,78.63 109.89,278.25 111.28,189.56 112.67,284.82 114.05,319.35 115.44,357.85 116.83,250.57 118.21,209.97 119.60,417.80 120.99,390.64 122.37,190.00 123.76,308.34 125.15,286.41 126.53,315.75 127.92,367.72 129.31,216.45 130.69,91.72 132.08,333.96 133.47,311.82 134.86,424.59 136.24,342.90 137.63,277.33 139.02,220.51 140.40,217.67 141.79,275.65 143.18,254.39 144.56,312.36 145.95,258.11 147.34,122.77 148.72,430.24 150.11,251.23 151.50,434.76 152.88,188.07 154.27,222.86 155.66,458.52 157.04,93.38 158.43,447.39 159.82,253.50 161.20,305.78 162.59,121.35 163.98,398.72 165.36,431.89 166.75,432.43 168.14,266.61 169.52,358.43 170.91,199.36 172.30,344.46 173.68,131.90 175.07,118.01 176.46,216.82 177.84,150.05 179.23,76.55 180.62,388.93 182.00,339.28 183.39,313.82 184.78,275.56 186.16,270.19 187.55,235.46 188.94,282.19 190.32,121.11 191.71,268.83 193.10,279.47 194.48,305.59 195.87,279.15 197.26,218.07 198.64,266.71 200.03,307.99 201.42,269.42 202.80,301.07 204.19,344.07 205.58,272.05 206.96,157.29 208.35,271.66 209.74,219.50 211.12,343.83 212.51,230.91 213.90,323.25 215.28,205.68 216.67,249.50 218.06,76.48 219.44,322.93 220.83,238.29 222.22,197.35 223.60,311.07 224.99,183.35 226.38,277.36 227.76,289.04 229.15,334.82 230.54,249.15 231.92,231.78 233.31,280.16 234.70,319.37 236.08,367.40 237.47,306.23 238.86,392.46 240.24,256.92 241.63,278.20 243.02,284.66 244.41,419.46 245.79,243.58 247.18,227.12 248.57,274.57 249.95,311.58 251.34,76.05 252.73,278.38 254.11,213.36 255.50,147.38 256.89,298.41 258.27,322.00 259.66,238.73 261.05,273.31 262.43,258.41 263.82,318.84 265.21,410.93 266.59,289.86 267.98,314.49 269.37,277.76 270.75,327.75 272.14,328.54 273.53,321.90 274.91,290.03 276.30,204.97 277.69,330.05 279.07,188.12 280.46,267.42 281.85,164.84 283.23,339.37 284.62,304.43 286.01,344.41 287.39,154.86 288.78,217.88 290.17,244.54 291.55,271.59 292.94,258.90 294.33,210.93 295.71,246.75 297.10,328.32 298.49,305.99 299.87,275.93 301.26,389.59 302.65,360.94 304.03,346.20 305.42,113.31 306.81,233.73 308.19,154.65 309.58,224.33 310.97,76.07 312.35,119.53 313.74,263.29 315.13,122.52 316.51,355.55 317.90,251.53 319.29,346.79 320.67,374.22 322.06,389.54 323.45,297.21 324.83,287.87 326.22,386.45 327.61,474.48 328.99,366.33 330.38,333.26 331.77,359.22 333.15,299.32 334.54,125.43 335.93,342.15 337.31,176.68 338.70,250.16 340.09,284.66 341.47,83.77 342.86,317.90 344.25,393.96 345.63,220.76 347.02,304.69 348.41,164.58 349.80,371.25 351.18,274.79 352.57,250.58 353.96,387.48 355.34,158.07 356.73,364.23 358.12,346.62 359.50,267.27 360.89,316.38 362.28,125.11 363.66,322.87 365.05,350.78 366.44,275.62 367.82,297.30 369.21,373.95 370.60,352.10 371.98,239.85 373.37,234.02 374.76,215.11 376.14,248.96 377.53,297.25 378.92,330.75 380.30,193.83 381.69,76.24 383.08,76.10 384.46,278.15 385.85,328.08 387.24,411.48 388.62,300.31 390.01,261.76 391.40,273.48 392.78,354.49 394.17,306.68 395.56,333.92 396.94,247.36 398.33,422.19 399.72,266.40 401.10,367.25 402.49,336.72 403.88,258.66 405.26,275.63 406.65,309.90 408.04,292.78 409.42,330.07 410.81,381.20 412.20,309.94 413.58,295.61 414.97,300.35 416.36,256.10 417.74,154.96 419.13,256.04 420.52,245.32 421.90,239.03 423.29,263.84 424.68,301.16 426.06,306.19 427.45,215.65 428.84,282.94 430.22,172.75 431.61,335.60 433.00,287.98 434.38,313.74 435.77,424.41 437.16,375.52 438.54,175.03 439.93,135.30 441.32,272.91 442.70,329.43 444.09,192.71 445.48,276.05 446.86,176.64 448.25,409.40 449.64,344.50 451.02,263.44 452.41,433.60 453.80,192.07 455.18,195.69 456.57,274.09 457.96,278.03 459.35,330.93 460.73,270.99 462.12,198.31 463.51,305.01 464.89,252.01 466.28,318.25 467.67,316.94 469.05,299.91 470.44,180.07 471.83,332.95 473.21,366.44 474.60,311.07 475.99,151.65 477.37,392.23 478.76,220.60 480.15,309.07 481.53,186.55 482.92,101.30 484.31,361.79 485.69,350.06 487.08,414.81 488.47,285.07 489.85,395.76 491.24,417.64 492.63,211.87 494.01,285.69 495.40,355.00 496.79,323.82 498.17,212.96 499.56,271.55 500.95,112.95 502.33,288.64 503.72,120.65 505.11,76.11 506.49,416.16 507.88,294.11 509.27,359.58 510.65,123.78 512.04,220.90 513.43,199.93 514.81,179.02 516.20,392.87 517.59,376.49 518.97,445.09 520.36,340.65 521.75,339.23 523.13,319.96 524.52,278.83 525.91,364.34 527.29,104.22 528.68,332.81 530.07,287.54 531.45,154.47 532.84,369.24 534.23,228.65 535.61,320.50 537.00,345.08 538.39,216.94 539.77,320.19 541.16,253.18 542.55,206.33 543.93,239.02 545.32,276.98 546.71,335.49 548.09,344.81 549.48,252.56 550.87,301.50 552.25,151.40 553.64,406.46 555.03,316.39 556.41,251.84 557.80,248.78 559.19,76.34 560.57,352.96 561.96,294.73 563.35,416.28 564.73,269.13 566.12,372.48 567.51,193.27 568.90,212.07 570.28,246.41 571.67,274.07 573.06,291.14 574.44,335.32 575.83,274.58 577.22,300.02 578.60,324.31 579.99,159.14 581.38,137.13 582.76,180.21 584.15,305.37 585.54,325.58 586.92,306.57 588.31,139.60 589.70,160.13 591.08,138.32 592.47,83.85 593.86,321.01 595.24,186.77 596.63,119.05 598.02,270.11 599.40,262.49 600.79,367.27 602.18,261.28 603.56,291.83 604.95,309.98 606.34,302.35 607.72,420.83 609.11,233.43 610.50,264.01 611.88,283.58 613.27,114.11 614.66,332.30 616.04,328.70 617.43,265.33 618.82,313.65 620.20,175.41 621.59,202.79 622.98,320.10 624.36,261.15 625.75,297.01 627.14,194.83 628.52,447.42 629.91,395.06 631.30,139.67 632.68,290.16 634.07,315.55 635.46,235.09 636.84,326.99 638.23,231.48 639.62,260.95 641.00,296.20 642.39,283.70 643.78,235.52 645.16,222.06 646.55,169.89 647.94,293.81 649.32,240.81 650.71,105.50 652.10,212.77 653.48,76.01 654.87,76.03 656.26,294.95 657.64,455.98 659.03,263.59 660.42,76.14 661.80,328.54 663.19,276.48 664.58,309.80 665.96,342.85 667.35,344.85 668.74,326.29 670.12,313.21 671.51,374.69 672.90,242.20 674.29,333.45 675.67,289.50 677.06,273.05 678.45,325.46 679.83,253.01 681.22,196.12 682.61,78.92 683.99,171.71 685.38,297.84 686.77,306.32 688.15,427.50 689.54,299.38 690.93,208.26 692.31,132.54 693.70,402.57 695.09,303.11 696.47,168.47 697.86,266.93 699.25,368.10 700.63,348.11 702.02,189.65 703.41,229.91 704.79,273.18 706.18,191.24 707.57,359.79 708.95,312.17 710.34,324.11 711.73,228.39 713.11,272.51 714.50,257.63 715.89,132.81 717.27,194.91 718.66,318.46 720.05,304.25 721.43,142.46 722.82,223.20 724.21,272.52 725.59,325.80 726.98,319.52 728.37,239.94 729.75,307.07 731.14,303.89 732.53,124.50 733.91,247.00 735.30,239.67 736.69,246.56 738.07,240.23 739.46,76.70 740.85,102.46 742.23,267.51 743.62,78.11 745.01,198.19 746.39,129.98 747.78,324.43 749.17,92.87 750.55,418.28 751.94,317.05 753.33,181.30 754.71,324.83 756.10,294.47 757.49,133.55 758.87,386.97 760.26,352.71 761.65,211.39 763.03,347.85 764.42,250.75 765.81,310.33 767.19,200.63 768.58,431.22 769.97,272.39 771.35,281.08 772.74,327.55 774.13,409.12 775.51,219.87 776.90,235.29 778.29,344.52 779.67,451.67 781.06,313.65 782.45,362.30 783.84,237.50 785.22,445.25 786.61,225.05 788.00,82.00 789.38,313.83 790.77,231.06 792.16,325.95 793.54,284.21 794.93,335.05 796.32,341.04 797.70,347.38 799.09,427.21 800.48,268.59 801.86,215.18 803.25,289.56 804.64,317.02 806.02,245.57 807.41,448.83 808.80,141.94 810.18,397.38 811.57,265.17 812.96,428.49 814.34,318.51 815.73,367.60 817.12,222.51 818.50,116.40 819.89,358.06 821.28,342.76 822.66,349.27 824.05,210.17 825.44,126.65 826.82,394.14 828.21,101.97 829.60,384.63 830.98,191.76 832.37,365.55 833.76,246.63 835.14,358.62 836.53,388.49 837.92,173.31 839.30,448.13 840.69,374.50 842.08,238.44 843.46,363.10 844.85,152.19 846.24,392.87 847.62,243.69 849.01,354.40 850.40,239.94 851.78,330.88 853.17,262.17 854.56,225.29 855.94,123.74 857.33,226.94 858.72,355.35 860.10,241.06 861.49,304.47 862.88,108.84 864.26,247.61 865.65,267.82 867.04,337.77 868.42,345.20 869.81,93.36 871.20,339.42 872.58,331.36 873.97,321.65 875.36,194.26 876.74,141.28 878.13,211.42 879.52,298.62 880.90,330.71 882.29,179.12 883.68,263.77 885.06,84.70 886.45,215.52 887.84,414.23 889.22,292.34 890.61,366.27 892.00,270.73 893.39,124.74 894.77,359.91 896.16,339.43 897.55,150.31 898.93,324.84 900.32,348.84 901.71,223.20 903.09,252.23 904.48,202.91 905.87,322.03 907.25,213.77 908.64,328.02 910.03,405.49 911.41,305.96 912.80,231.92 914.19,346.34 915.57,470.03 916.96,337.07 918.35,294.17 919.73,306.51 921.12,320.88 922.51,303.02 923.89,142.42 925.28,419.43 926.67,345.79 928.05,298.18 929.44,280.77 930.83,250.55 932.21,336.51 933.60,294.63 934.99,337.77 936.37,300.14 937.76,106.09 939.15,346.83 940.53,320.19 941.92,143.42 943.31,236.39"/>
<circle cx="81.64" cy="86.74" r="3" fill="#d62728" opacity="0.85"/>
<circle cx="83.89" cy="94.07" r="3" fill="#d62728" opacity="0.85"/>
<circle cx="86.84" cy="80.26" r="3" fill="#d62728" opacity="0.85"/>
<circle cx="92.21" cy="76.96" r="3" fill="#d62728" opacity="0.85"/>
<circle cx="94.81" cy="135.90" r="3" fill="#d62728" opacity="0.85"/>
<circle cx="98.97" cy="77.23" r="3" fill="#d62728" opacity="0.85"/>
<circle cx="101.92" cy="76.09" r="3" fill="#d62728" opacity="0.85"/>
<circle cx="105.73" cy="148.60" r="3" fill="#d62728" opacity="0.85"/>
<circle cx="107.99" cy="79.53" r="3" fill="#d62728" opacity="0.85"/>
<circle cx="115.61" cy="95.17" r="3" fill="#d62728" opacity="0.85"/>
<circle cx="128.96" cy="76.60" r="3" fill="#d62728" opacity="0.85"/>
<circle cx="135.03" cy="103.25" r="3" fill="#d62728" opacity="0.85"/>
<circle cx="145.08" cy="150.33" r="3" fill="#d62728" opacity="0.85"/>
<circle cx="149.76" cy="115.86" r="3" fill="#d62728" opacity="0.85"/>
<circle cx="155.83" cy="102.83" r="3" fill="#d62728" opacity="0.85"/>
<circle cx="157.74" cy="84.39" r="3" fill="#d62728" opacity="0.85"/>
<circle cx="162.59" cy="121.35" r="3" fill="#d62728" opacity="0.85"/>
<circle cx="167.10" cy="141.96" r="3" fill="#d62728" opacity="0.85"/>
<circle cx="170.74" cy="107.91" r="3" fill="#d62728" opacity="0.85"/>
<circle cx="173.68" cy="131.90" r="3" fill="#d62728" opacity="0.85"/>
<circle cx="175.94" cy="88.27" r="3" fill="#d62728" opacity="0.85"/>
<circle cx="179.23" cy="76.55" r="3" fill="#d62728" opacity="0.85"/>
<circle cx="181.14" cy="76.05" r="3" fill="#d62728" opacity="0.85"/>
<circle cx="184.43" cy="76.13" r="3" fill="#d62728" opacity="0.85"/>
<circle cx="187.20" cy="142.59" r="3" fill="#d62728" opacity="0.85"/>
<circle cx="215.98" cy="102.87" r="3" fill="#d62728" opacity="0.85"/>
<circle cx="218.06" cy="76.48" r="3" fill="#d62728" opacity="0.85"/>
<circle cx="225.34" cy="151.96" r="3" fill="#d62728" opacity="0.85"/>
<circle cx="239.20" cy="113.45" r="3" fill="#d62728" opacity="0.85"/>
<circle cx="250.47" cy="148.58" r="3" fill="#d62728" opacity="0.85"/>
<circle cx="255.50" cy="147.38" r="3" fill="#d62728" opacity="0.85"/>
<circle cx="266.25" cy="101.10" r="3" fill="#d62728" opacity="0.85"/>
<circle cx="281.33" cy="127.27" r="3" fill="#d62728" opacity="0.85"/>
<circle cx="292.59" cy="120.63" r="3" fill="#d62728" opacity="0.85"/>
<circle cx="306.11" cy="103.40" r="3" fill="#d62728" opacity="0.85"/>
<circle cx="310.27" cy="156.99" r="3" fill="#d62728" opacity="0.85"/>
<circle cx="314.61" cy="78.48" r="3" fill="#d62728" opacity="0.85"/>
<circle cx="317.21" cy="77.39" r="3" fill="#d62728" opacity="0.85"/>
<circle cx="334.54" cy="125.43" r="3" fill="#d62728" opacity="0.85"/>
<circle cx="341.47" cy="83.77" r="3" fill="#d62728" opacity="0.85"/>
<circle cx="350.49" cy="76.71" r="3" fill="#d62728" opacity="0.85"/>
<circle cx="357.77" cy="79.15" r="3" fill="#d62728" opacity="0.85"/>
<circle cx="369.38" cy="138.79" r="3" fill="#d62728" opacity="0.85"/>
<circle cx="381.69" cy="76.24" r="3" fill="#d62728" opacity="0.85"/>
<circle cx="388.45" cy="134.04" r="3" fill="#d62728" opacity="0.85"/>
<circle cx="396.60" cy="76.61" r="3" fill="#d62728" opacity="0.85"/>
<circle cx="408.73" cy="134.37" r="3" fill="#d62728" opacity="0.85"/>
<circle cx="411.68" cy="125.19" r="3" fill="#d62728" opacity="0.85"/>
<circle cx="417.57" cy="85.82" r="3" fill="#d62728" opacity="0.85"/>
<circle cx="429.18" cy="143.07" r="3" fill="#d62728" opacity="0.85"/>
<circle cx="440.80" cy="77.89" r="3" fill="#d62728" opacity="0.85"/>
<circle cx="448.94" cy="79.10" r="3" fill="#d62728" opacity="0.85"/>
<circle cx="453.45" cy="119.83" r="3" fill="#d62728" opacity="0.85"/>
<circle cx="468.53" cy="121.81" r="3" fill="#d62728" opacity="0.85"/>
<circle cx="478.41" cy="126.25" r="3" fill="#d62728" opacity="0.85"/>
<circle cx="486.91" cy="76.01" r="3" fill="#d62728" opacity="0.85"/>
<circle cx="495.05" cy="120.01" r="3" fill="#d62728" opacity="0.85"/>
<circle cx="500.25" cy="117.18" r="3" fill="#d62728" opacity="0.85"/>
<circle cx="504.24" cy="146.76" r="3" fill="#d62728" opacity="0.85"/>
<circle cx="505.11" cy="76.11" r="3" fill="#d62728" opacity="0.85"/>
<circle cx="508.57" cy="76.01" r="3" fill="#d62728" opacity="0.85"/>
<circle cx="513.77" cy="86.39" r="3" fill="#d62728" opacity="0.85"/>
<circle cx="529.55" cy="90.75" r="3" fill="#d62728" opacity="0.85"/>
<circle cx="544.80" cy="149.23" r="3" fill="#d62728" opacity="0.85"/>
<circle cx="550.35" cy="150.57" r="3" fill="#d62728" opacity="0.85"/>
<circle cx="559.19" cy="76.34" r="3" fill="#d62728" opacity="0.85"/>
<circle cx="562.83" cy="146.85" r="3" fill="#d62728" opacity="0.85"/>
<circle cx="574.27" cy="147.82" r="3" fill="#d62728" opacity="0.85"/>
<circle cx="580.68" cy="143.34" r="3" fill="#d62728" opacity="0.85"/>
<circle cx="587.27" cy="130.39" r="3" fill="#d62728" opacity="0.85"/>
<circle cx="592.47" cy="83.85" r="3" fill="#d62728" opacity="0.85"/>
<circle cx="602.70" cy="138.42" r="3" fill="#d62728" opacity="0.85"/>
<circle cx="619.34" cy="126.56" r="3" fill="#d62728" opacity="0.85"/>
<circle cx="630.78" cy="133.77" r="3" fill="#d62728" opacity="0.85"/>
<circle cx="642.04" cy="76.13" r="3" fill="#d62728" opacity="0.85"/>
<circle cx="648.46" cy="111.89" r="3" fill="#d62728" opacity="0.85"/>
<circle cx="650.71" cy="105.50" r="3" fill="#d62728" opacity="0.85"/>
<circle cx="651.92" cy="76.11" r="3" fill="#d62728" opacity="0.85"/>
<circle cx="653.31" cy="76.00" r="3" fill="#d62728" opacity="0.85"/>
<circle cx="654.18" cy="76.01" r="3" fill="#d62728" opacity="0.85"/>
<circle cx="655.04" cy="76.07" r="3" fill="#d62728" opacity="0.85"/>
<circle cx="656.08" cy="76.19" r="3" fill="#d62728" opacity="0.85"/>
<circle cx="662.32" cy="103.43" r="3" fill="#d62728" opacity="0.85"/>
<circle cx="694.39" cy="148.32" r="3" fill="#d62728" opacity="0.85"/>
<circle cx="715.37" cy="141.21" r="3" fill="#d62728" opacity="0.85"/>
<circle cx="732.53" cy="124.50" r="3" fill="#d62728" opacity="0.85"/>
<circle cx="743.62" cy="78.11" r="3" fill="#d62728" opacity="0.85"/>
<circle cx="745.35" cy="90.74" r="3" fill="#d62728" opacity="0.85"/>
<circle cx="749.17" cy="92.87" r="3" fill="#d62728" opacity="0.85"/>
<circle cx="756.79" cy="139.05" r="3" fill="#d62728" opacity="0.85"/>
<circle cx="759.57" cy="128.25" r="3" fill="#d62728" opacity="0.85"/>
<circle cx="762.86" cy="76.10" r="3" fill="#d62728" opacity="0.85"/>
<circle cx="771.87" cy="78.12" r="3" fill="#d62728" opacity="0.85"/>
<circle cx="778.11" cy="144.04" r="3" fill="#d62728" opacity="0.85"/>
<circle cx="781.93" cy="76.06" r="3" fill="#d62728" opacity="0.85"/>
<circle cx="788.00" cy="82.00" r="3" fill="#d62728" opacity="0.85"/>
<circle cx="800.30" cy="122.89" r="3" fill="#d62728" opacity="0.85"/>
<circle cx="805.68" cy="136.37" r="3" fill="#d62728" opacity="0.85"/>
<circle cx="812.61" cy="129.79" r="3" fill="#d62728" opacity="0.85"/>
<circle cx="822.49" cy="120.28" r="3" fill="#d62728" opacity="0.85"/>
<circle cx="828.21" cy="101.97" r="3" fill="#d62728" opacity="0.85"/>
<circle cx="835.32" cy="85.61" r="3" fill="#d62728" opacity="0.85"/>
<circle cx="843.98" cy="80.70" r="3" fill="#d62728" opacity="0.85"/>
<circle cx="847.97" cy="152.92" r="3" fill="#d62728" opacity="0.85"/>
<circle cx="855.08" cy="100.75" r="3" fill="#d62728" opacity="0.85"/>
<circle cx="859.41" cy="122.09" r="3" fill="#d62728" opacity="0.85"/>
<circle cx="869.81" cy="93.36" r="3" fill="#d62728" opacity="0.85"/>
<circle cx="872.24" cy="76.79" r="3" fill="#d62728" opacity="0.85"/>
<circle cx="875.88" cy="156.75" r="3" fill="#d62728" opacity="0.85"/>
<circle cx="883.16" cy="97.02" r="3" fill="#d62728" opacity="0.85"/>
<circle cx="887.66" cy="86.34" r="3" fill="#d62728" opacity="0.85"/>
<circle cx="893.56" cy="149.22" r="3" fill="#d62728" opacity="0.85"/>
<circle cx="897.55" cy="150.31" r="3" fill="#d62728" opacity="0.85"/>
<circle cx="903.79" cy="98.94" r="3" fill="#d62728" opacity="0.85"/>
<circle cx="912.28" cy="76.08" r="3" fill="#d62728" opacity="0.85"/>
<circle cx="919.21" cy="134.20" r="3" fill="#d62728" opacity="0.85"/>
<circle cx="922.33" cy="131.54" r="3" fill="#d62728" opacity="0.85"/>
<circle cx="925.63" cy="134.04" r="3" fill="#d62728" opacity="0.85"/>
<circle cx="936.03" cy="86.98" r="3" fill="#d62728" opacity="0.85"/>
<circle cx="940.88" cy="77.60" r="3" fill="#d62728" opacity="0.85"/>
<text class="label" x="423.00" y="532">Chronological block order</text>
<text class="label" x="20" y="58">Congestion ratio</text>
</svg>